<svg width="855" height="692" viewBox="0 0 855 692" fill="none" xmlns="http://www.w3.org/2000/svg">
<path d="M75.0236 406.08C76.2938 407.35 77.5639 408.408 78.8341 409.255C76.7172 416.453 75.6587 424.074 75.6587 432.118V467.683C75.6587 488.853 83.0681 506.847 97.8868 521.666C104.238 528.017 111.012 532.886 118.21 536.273V593.431C118.21 614.601 125.619 632.595 140.438 647.414C155.257 662.233 173.251 669.642 194.421 669.642C194.421 669.642 197.853 669.642 202.811 669.642C210.737 669.642 222.561 669.642 230.487 669.642C235.444 669.642 238.877 669.642 238.877 669.642C256.66 669.642 272.325 664.35 285.874 653.765C285.874 653.765 286.085 653.977 286.509 654.4C307.678 665.832 330.965 671.548 356.369 671.548C377.962 671.548 398.073 667.102 416.702 658.211C420.09 656.94 423.265 655.459 426.229 653.765C426.652 653.765 427.076 653.977 427.499 654.4C448.669 665.832 471.955 671.548 497.359 671.548C514.718 671.548 531.23 668.796 546.896 663.291C556.211 667.525 566.795 669.642 578.651 669.642C578.651 669.642 582.083 669.642 587.041 669.642C594.967 669.642 606.79 669.642 614.716 669.642C619.674 669.642 623.107 669.642 623.107 669.642C630.728 669.642 637.926 668.584 644.7 666.467C651.474 668.584 658.46 669.642 665.658 669.642C665.658 669.642 669.14 669.642 674.168 669.642C682.207 669.642 694.2 669.642 702.239 669.642C707.268 669.642 710.749 669.642 710.749 669.642C731.496 669.642 749.49 662.233 764.732 647.414C779.551 632.595 786.96 614.601 786.96 593.431V518.491C786.96 482.502 776.375 452.653 755.206 428.943C754.782 428.52 754.359 428.096 753.936 427.673C770.024 425.132 783.996 417.935 795.852 406.08C810.67 391.261 818.08 373.267 818.08 352.097V277.156C818.08 241.168 807.495 211.107 786.325 186.973C762.192 159.876 731.496 146.328 694.237 146.328C692.188 146.328 690.162 146.373 688.158 146.462C681.466 146.763 675.024 147.565 668.833 148.868C666.262 148.4 663.69 148.062 661.118 147.853C659.542 147.724 657.965 147.644 656.388 147.613C655.879 147.603 655.37 147.598 654.861 147.598C654.861 147.598 651.38 147.598 646.351 147.598C638.312 147.598 626.319 147.598 618.28 147.598C613.252 147.598 609.77 147.598 609.77 147.598C608.756 147.598 607.742 147.622 606.728 147.671C603.508 147.825 600.288 148.224 597.068 148.868C592.834 148.021 588.6 147.598 584.366 147.598C584.366 147.598 580.934 147.598 575.976 147.598C568.05 147.598 556.226 147.598 548.3 147.598C543.343 147.598 539.91 147.598 539.91 147.598C539.323 147.598 538.741 147.602 538.163 147.61C536.643 147.631 535.152 147.681 533.689 147.758C531.688 147.864 529.739 148.022 527.843 148.233C522.703 147.462 517.486 146.925 512.19 146.622C510.379 146.518 508.558 146.442 506.729 146.393C505.095 146.349 503.453 146.328 501.805 146.328C501.334 146.328 500.847 146.328 500.344 146.328C499.539 146.328 498.693 146.328 497.804 146.328C497.249 146.328 496.677 146.328 496.089 146.328C492.702 139.977 488.256 134.261 482.752 129.18C467.933 114.361 450.15 106.952 429.404 106.952C429.404 106.952 425.922 106.952 420.894 106.952C412.855 106.952 400.862 106.952 392.823 106.952C387.795 106.952 384.313 106.952 384.313 106.952C363.143 106.952 345.149 114.361 330.33 129.18C324.826 134.261 320.38 139.977 316.993 146.328C315.934 146.328 314.875 146.328 313.817 146.328C312.124 146.328 310.431 146.328 308.738 146.328C307.679 146.328 306.62 146.328 305.561 146.328C304.503 146.328 303.444 146.328 302.385 146.328C300.692 146.328 298.999 146.328 297.306 146.328C296.248 146.328 295.189 146.328 294.13 146.328C291.59 142.94 288.626 139.553 285.239 136.166C270.42 121.771 252.637 114.573 231.891 114.573C231.891 114.573 223.947 114.573 212.473 114.573C194.13 114.573 166.767 114.573 148.424 114.573C136.951 114.573 129.006 114.573 129.006 114.573C107.837 114.573 89.8424 121.982 75.0236 136.801C60.2048 151.62 52.7954 169.614 52.7954 190.784V352.097C52.7954 373.267 60.2048 391.261 75.0236 406.08Z" fill="black"/>
<path d="M429.404 390.202C429.404 390.202 425.922 390.202 420.894 390.202C412.855 390.202 400.862 390.202 392.823 390.202C387.795 390.202 384.313 390.202 384.313 390.202C374.786 390.202 365.895 387.027 358.909 380.676C356.792 381.523 354.675 382.581 352.558 383.852C339.433 389.356 324.826 392.108 308.737 392.108C292.225 392.108 276.982 389.144 263.01 383.216L262.375 382.581C260.682 382.158 258.988 381.523 257.295 380.676C250.309 387.027 242.052 390.202 231.891 390.202C231.891 390.202 223.947 390.202 212.473 390.202C194.13 390.202 166.767 390.202 148.424 390.202C136.951 390.202 129.006 390.202 129.006 390.202C109.954 390.202 90.9009 371.785 90.9009 352.097V190.784C90.9009 171.731 109.954 152.678 129.006 152.678C129.006 152.678 136.951 152.678 148.424 152.678C166.767 152.678 194.13 152.678 212.473 152.678C223.947 152.678 231.891 152.678 231.891 152.678C250.944 152.678 269.361 170.461 269.996 189.514C279.844 186.484 290.369 184.809 301.572 184.49C302.892 184.452 304.222 184.433 305.561 184.433C320.804 184.433 334.352 186.762 346.207 191.419V183.163C346.207 163.475 364.625 145.057 384.313 145.057C384.313 145.057 387.795 145.057 392.823 145.057C400.862 145.057 412.855 145.057 420.894 145.057C425.922 145.057 429.404 145.057 429.404 145.057C448.457 145.057 467.51 163.475 467.51 183.163V190.784C478.094 186.55 489.526 184.433 501.805 184.433C511.119 184.433 519.799 185.492 527.843 187.608C531.654 186.338 535.464 185.703 539.91 185.703C539.91 185.703 543.343 185.703 548.3 185.703C556.226 185.703 568.05 185.703 575.976 185.703C580.934 185.703 584.366 185.703 584.366 185.703C589.447 185.703 592.622 186.338 597.068 188.244C601.514 186.338 605.324 185.703 609.77 185.703C609.77 185.703 613.252 185.703 618.28 185.703C626.319 185.703 638.312 185.703 646.351 185.703C651.38 185.703 654.861 185.703 654.861 185.703C659.942 185.703 663.753 186.338 668.198 188.244C675.436 185.958 683.187 184.701 691.452 184.471C692.374 184.446 693.302 184.433 694.237 184.433C720.064 184.433 741.234 193.748 757.746 212.377C772.565 229.313 779.974 250.906 779.974 277.156V352.097C779.974 371.785 761.557 390.202 741.869 390.202C741.869 390.202 738.436 390.202 733.478 390.202C725.552 390.202 713.729 390.202 705.803 390.202C700.845 390.202 697.412 390.202 697.412 390.202C689.156 390.202 682.805 388.297 675.819 383.852C669.468 388.297 663.118 390.202 654.861 390.202C654.861 390.202 653.734 390.202 652.105 390.202C649.5 390.202 645.615 390.202 643.011 390.202C641.382 390.202 640.254 390.202 640.254 390.202C652.956 396.553 661.212 409.89 661.212 424.497V425.767C661.33 425.767 661.448 425.767 661.565 425.767C661.753 425.767 661.941 425.767 662.13 425.767C662.247 425.767 662.365 425.767 662.482 425.767C688.733 425.767 709.903 435.082 725.992 453.711C741.234 470.647 748.855 492.24 748.855 518.491V593.431C748.855 613.119 729.802 631.537 710.749 631.537C710.749 631.537 707.268 631.537 702.239 631.537C694.2 631.537 682.207 631.537 674.168 631.537C669.14 631.537 665.658 631.537 665.658 631.537C658.037 631.537 651.051 629.632 644.7 625.186C637.714 629.632 631.363 631.537 623.107 631.537C623.107 631.537 619.674 631.537 614.716 631.537C606.79 631.537 594.967 631.537 587.041 631.537C582.083 631.537 578.651 631.537 578.651 631.537C567.219 631.537 557.693 627.091 550.707 619.47C535.041 628.785 517.258 633.442 497.359 633.442C478.306 633.442 460.947 629.208 445.281 620.74C438.507 616.93 432.156 612.484 426.229 607.403C419.031 613.754 410.563 619.258 400.825 623.916C387.276 630.267 372.458 633.442 356.369 633.442C337.316 633.442 319.957 629.208 304.291 620.74C293.706 614.813 284.604 607.192 276.982 597.877C274.442 616.295 257.295 631.537 238.877 631.537C238.877 631.537 235.444 631.537 230.487 631.537C222.561 631.537 210.737 631.537 202.811 631.537C197.853 631.537 194.421 631.537 194.421 631.537C174.733 631.537 156.315 613.119 156.315 593.431V505.789C156.315 505.789 155.972 505.789 155.476 505.789C154.684 505.789 153.501 505.789 152.709 505.789C152.213 505.789 151.87 505.789 151.87 505.789C132.182 505.789 113.764 487.371 113.764 467.683V432.118C113.764 413.066 132.182 394.013 151.87 394.013C151.87 394.013 161.923 394.013 176.442 394.013C199.653 394.013 234.279 394.013 257.491 394.013C272.01 394.013 282.063 394.013 282.063 394.013C301.116 394.013 319.533 411.795 320.169 431.483C331.6 427.673 343.667 425.767 356.369 425.767C375.421 425.767 392.569 429.79 407.811 437.834C415.009 441.645 421.36 446.09 426.864 451.171C432.368 446.09 438.507 441.645 445.281 437.834C460.947 429.79 478.306 425.767 497.359 425.767C513.024 425.767 527.42 428.52 540.545 434.024V424.497C540.545 409.89 548.166 396.553 561.503 390.202C561.503 390.202 559.836 390.202 557.428 390.202C553.578 390.202 547.835 390.202 543.985 390.202C541.577 390.202 539.91 390.202 539.91 390.202C535.464 390.202 531.654 389.567 527.843 388.297C520.606 390.583 512.855 391.84 504.589 392.069C503.668 392.095 502.739 392.108 501.805 392.108C485.292 392.108 470.05 387.874 456.078 379.406C448.457 386.392 439.566 390.202 429.404 390.202ZM501.805 287.953C501.805 289.646 502.863 291.763 504.98 294.304V294.939C504.98 294.939 504.996 294.939 505.029 294.939C505.081 294.939 505.175 294.939 505.311 294.939C505.396 294.939 505.497 294.939 505.615 294.939C505.615 294.939 505.566 294.939 505.495 294.939C505.382 294.939 505.213 294.939 505.1 294.939C505.029 294.939 504.98 294.939 504.98 294.939C508.367 297.903 512.178 299.384 516.412 299.384C520.646 299.384 524.244 297.691 527.208 294.304C529.749 291.763 531.019 289.646 531.019 287.953C531.019 286.259 529.96 284.354 527.843 282.237C524.456 278.426 520.646 276.521 516.412 276.521C511.754 276.521 507.944 278.215 504.98 281.602C502.863 283.719 501.805 285.836 501.805 287.953Z" fill="white"/>
<path d="M221.115 227.06C210.721 227.06 195.215 227.06 184.821 227.06C178.319 227.06 173.818 227.06 173.818 227.06V253.353C173.818 253.353 177.79 253.353 183.527 253.353C192.698 253.353 206.38 253.353 215.551 253.353C221.288 253.353 225.26 253.353 225.26 253.353V287.419C225.26 287.419 221.288 287.419 215.551 287.419C206.38 287.419 192.698 287.419 183.527 287.419C177.79 287.419 173.818 287.419 173.818 287.419V316.456C173.818 316.456 178.319 316.456 184.821 316.456C195.215 316.456 210.721 316.456 221.115 316.456C227.617 316.456 232.119 316.456 232.119 316.456V352.351C232.119 352.351 224.157 352.351 212.658 352.351C194.274 352.351 166.85 352.351 148.467 352.351C136.968 352.351 129.006 352.351 129.006 352.351V191.165C129.006 191.165 136.968 191.165 148.467 191.165C166.85 191.165 194.274 191.165 212.658 191.165C224.157 191.165 232.119 191.165 232.119 191.165V227.06C232.119 227.06 227.617 227.06 221.115 227.06Z" fill="black" fill-opacity="0.95"/>
<path d="M308.906 353.952C297.321 353.952 286.957 352.046 277.811 348.236C268.819 344.273 261.655 338.938 256.32 332.231C251.138 325.372 248.242 317.675 247.632 309.14C247.632 309.14 250.986 309.14 255.831 309.14C263.575 309.14 275.129 309.14 282.874 309.14C287.718 309.14 291.072 309.14 291.072 309.14C291.682 313.255 293.587 316.456 296.788 318.742C299.989 321.028 303.952 322.172 308.677 322.172C312.335 322.172 315.231 321.409 317.365 319.885C319.499 318.361 320.566 316.38 320.566 313.941C320.566 310.74 318.813 308.377 315.307 306.853C311.802 305.329 306.01 303.652 297.931 301.823C288.786 299.994 281.165 297.937 275.068 295.65C268.971 293.364 263.636 289.63 259.064 284.447C254.643 279.265 252.433 272.253 252.433 263.413C252.433 255.792 254.491 248.933 258.606 242.836C262.722 236.587 268.742 231.633 276.668 227.975C284.747 224.317 294.425 222.488 305.705 222.488C322.471 222.488 335.656 226.603 345.258 234.834C354.861 243.065 360.424 253.887 361.948 267.3C361.948 267.3 358.824 267.3 354.311 267.3C347.096 267.3 336.333 267.3 329.118 267.3C324.605 267.3 321.48 267.3 321.48 267.3C320.718 263.184 318.889 260.06 315.993 257.926C313.25 255.639 309.515 254.496 304.79 254.496C301.132 254.496 298.312 255.182 296.331 256.554C294.502 257.926 293.587 259.831 293.587 262.27C293.587 265.318 295.34 267.681 298.846 269.357C302.351 270.882 307.991 272.482 315.765 274.159C325.062 276.14 332.76 278.35 338.856 280.789C345.106 283.228 350.517 287.191 355.089 292.678C359.814 298.013 362.177 305.329 362.177 314.627C362.177 322.095 359.967 328.802 355.547 334.746C351.279 340.691 345.106 345.416 337.027 348.922C329.101 352.275 319.727 353.952 308.906 353.952Z" fill="black" fill-opacity="0.95"/>
<path d="M392.665 183.163C400.655 183.163 412.573 183.163 420.562 183.163C425.56 183.163 429.02 183.163 429.02 183.163V352.351C429.02 352.351 425.56 352.351 420.562 352.351C412.573 352.351 400.655 352.351 392.665 352.351C387.668 352.351 384.208 352.351 384.208 352.351V183.163C384.208 183.163 387.668 183.163 392.665 183.163Z" fill="black" fill-opacity="0.95"/>
<path d="M447.223 288.105C447.223 274.845 449.585 263.261 454.311 253.353C459.188 243.446 465.742 235.825 473.973 230.49C482.356 225.155 491.654 222.488 501.866 222.488C510.707 222.488 518.328 224.241 524.729 227.746C531.131 231.252 536.085 235.977 539.591 241.922V224.088C539.591 224.088 543.051 224.088 548.048 224.088C556.037 224.088 567.956 224.088 575.945 224.088C580.942 224.088 584.402 224.088 584.402 224.088V352.351C584.402 352.351 580.942 352.351 575.945 352.351C567.956 352.351 556.037 352.351 548.048 352.351C543.051 352.351 539.591 352.351 539.591 352.351V334.518C536.085 340.462 531.055 345.187 524.501 348.693C518.099 352.199 510.554 353.952 501.866 353.952C491.654 353.952 482.356 351.284 473.973 345.949C465.742 340.615 459.188 332.994 454.311 323.086C449.585 313.026 447.223 301.366 447.223 288.105ZM539.591 288.105C539.591 279.875 537.304 273.397 532.732 268.672C528.311 263.946 522.824 261.584 516.27 261.584C509.563 261.584 504 263.946 499.58 268.672C495.16 273.244 492.949 279.722 492.949 288.105C492.949 296.336 495.16 302.89 499.58 307.768C504 312.493 509.563 314.855 516.27 314.855C522.824 314.855 528.311 312.493 532.732 307.768C537.304 303.043 539.591 296.489 539.591 288.105Z" fill="black" fill-opacity="0.95"/>
<path d="M693.846 222.945C708.631 222.945 720.367 227.899 729.056 237.806C737.744 247.561 742.088 260.822 742.088 277.588V352.351C742.088 352.351 738.627 352.351 733.63 352.351C725.641 352.351 713.722 352.351 705.733 352.351C700.736 352.351 697.276 352.351 697.276 352.351V283.533C697.276 276.216 695.37 270.501 691.56 266.385C687.749 262.117 682.643 259.984 676.241 259.984C669.535 259.984 664.276 262.117 660.466 266.385C656.655 270.501 654.75 276.216 654.75 283.533V352.351C654.75 352.351 651.29 352.351 646.292 352.351C638.303 352.351 626.385 352.351 618.396 352.351C613.398 352.351 609.938 352.351 609.938 352.351V224.088C609.938 224.088 613.398 224.088 618.396 224.088C626.385 224.088 638.303 224.088 646.292 224.088C651.29 224.088 654.75 224.088 654.75 224.088V242.379C658.713 236.587 664.048 231.938 670.754 228.432C677.461 224.774 685.158 222.945 693.846 222.945Z" fill="black" fill-opacity="0.95"/>
<path d="M176.278 432.5C199.513 432.5 234.172 432.5 257.407 432.5C271.94 432.5 282.003 432.5 282.003 432.5V468.166C282.003 468.166 278.684 468.166 273.89 468.166C266.227 468.166 254.795 468.166 247.132 468.166C242.339 468.166 239.02 468.166 239.02 468.166V593.686C239.02 593.686 235.56 593.686 230.562 593.686C222.573 593.686 210.655 593.686 202.665 593.686C197.668 593.686 194.208 593.686 194.208 593.686V468.166C194.208 468.166 190.924 468.166 186.182 468.166C178.6 468.166 167.29 468.166 159.708 468.166C154.966 468.166 151.682 468.166 151.682 468.166V432.5C151.682 432.5 161.745 432.5 176.278 432.5Z" fill="black" fill-opacity="0.95"/>
<path d="M421.129 528.068C421.129 531.574 420.901 535.079 420.443 538.585C420.443 538.585 413.894 538.585 404.434 538.585C389.312 538.585 366.752 538.585 351.63 538.585C342.17 538.585 335.621 538.585 335.621 538.585C336.078 545.596 337.983 550.855 341.337 554.361C344.842 557.714 349.262 559.391 354.597 559.391C362.066 559.391 367.401 556.037 370.602 549.331C370.602 549.331 374.291 549.331 379.62 549.331C388.139 549.331 400.848 549.331 409.367 549.331C414.696 549.331 418.386 549.331 418.386 549.331C416.404 558.171 412.518 566.097 406.725 573.109C401.086 579.968 393.922 585.379 385.234 589.342C376.546 593.305 366.943 595.286 356.426 595.286C343.775 595.286 332.496 592.619 322.589 587.284C312.834 581.949 305.136 574.328 299.497 564.421C294.01 554.513 291.266 542.853 291.266 529.44C291.266 516.027 294.01 504.443 299.497 494.688C304.984 484.78 312.605 477.159 322.36 471.824C332.267 466.49 343.623 463.822 356.426 463.822C369.077 463.822 380.28 466.413 390.035 471.596C399.79 476.778 407.411 484.247 412.899 494.002C418.386 503.604 421.129 514.96 421.129 528.068ZM343.314 516.865C350.366 516.865 360.886 516.865 367.938 516.865C372.349 516.865 375.403 516.865 375.403 516.865C375.403 511.378 373.574 507.11 369.916 504.062C366.258 500.861 361.685 499.26 356.198 499.26C350.71 499.26 346.214 500.784 342.708 503.833C339.203 506.729 336.916 511.073 335.849 516.865C335.849 516.865 338.904 516.865 343.314 516.865Z" fill="black" fill-opacity="0.95"/>
<path d="M432.152 529.44C432.152 516.179 434.896 504.595 440.383 494.688C445.87 484.78 453.491 477.159 463.246 471.824C473.153 466.49 484.433 463.822 497.084 463.822C513.393 463.822 527.111 468.319 538.237 477.312C549.364 486.152 556.528 498.574 559.729 514.579C559.729 514.579 556.057 514.579 550.754 514.579C542.275 514.579 529.627 514.579 521.149 514.579C515.845 514.579 512.173 514.579 512.173 514.579C509.43 506.195 504.095 502.004 496.169 502.004C490.529 502.004 486.033 504.366 482.68 509.091C479.479 513.664 477.878 520.447 477.878 529.44C477.878 538.433 479.479 545.292 482.68 550.017C486.033 554.742 490.529 557.104 496.169 557.104C504.247 557.104 509.582 552.913 512.173 544.53C512.173 544.53 515.845 544.53 521.149 544.53C529.627 544.53 542.275 544.53 550.754 544.53C556.057 544.53 559.729 544.53 559.729 544.53C556.528 560.381 549.364 572.804 538.237 581.797C527.111 590.79 513.393 595.286 497.084 595.286C484.433 595.286 473.153 592.619 463.246 587.284C453.491 581.949 445.87 574.328 440.383 564.421C434.896 554.513 432.152 542.853 432.152 529.44Z" fill="black" fill-opacity="0.95"/>
<path d="M662.71 464.279C677.343 464.279 688.927 469.233 697.462 479.141C706.15 488.896 710.494 502.156 710.494 518.923V593.686C710.494 593.686 707.034 593.686 702.037 593.686C694.047 593.686 682.129 593.686 674.14 593.686C669.142 593.686 665.682 593.686 665.682 593.686V524.867C665.682 517.551 663.777 511.835 659.966 507.72C656.156 503.452 651.05 501.318 644.648 501.318C637.942 501.318 632.683 503.452 628.872 507.72C625.062 511.835 623.157 517.551 623.157 524.867V593.686C623.157 593.686 619.696 593.686 614.699 593.686C606.71 593.686 594.792 593.686 586.802 593.686C581.805 593.686 578.345 593.686 578.345 593.686V424.497C578.345 424.497 581.805 424.497 586.802 424.497C594.792 424.497 606.71 424.497 614.699 424.497C619.696 424.497 623.157 424.497 623.157 424.497V483.713C627.12 477.921 632.454 473.272 639.161 469.767C646.02 466.109 653.87 464.279 662.71 464.279Z" fill="black" fill-opacity="0.95"/>
<path d="M533.477 288.842C533.477 295.857 526.368 301.544 517.599 301.544C508.831 301.544 501.722 295.857 501.722 288.842C501.722 281.827 508.831 276.14 517.599 276.14C526.368 276.14 533.477 281.827 533.477 288.842Z" fill="white"/>
<path d="M75.0236 406.08C76.2938 407.35 77.5639 408.408 78.8341 409.255C76.7172 416.453 75.6587 424.074 75.6587 432.118V467.683C75.6587 488.853 83.0681 506.847 97.8868 521.666C104.238 528.017 111.012 532.886 118.21 536.273V593.431C118.21 614.601 125.619 632.595 140.438 647.414C155.257 662.233 173.251 669.642 194.421 669.642C194.421 669.642 197.853 669.642 202.811 669.642C210.737 669.642 222.561 669.642 230.487 669.642C235.444 669.642 238.877 669.642 238.877 669.642C256.66 669.642 272.325 664.35 285.874 653.765C285.874 653.765 286.085 653.977 286.509 654.4C307.678 665.832 330.965 671.548 356.369 671.548C377.962 671.548 398.073 667.102 416.702 658.211C420.09 656.94 423.265 655.459 426.229 653.765C426.652 653.765 427.076 653.977 427.499 654.4C448.669 665.832 471.955 671.548 497.359 671.548C514.718 671.548 531.23 668.796 546.896 663.291C556.211 667.525 566.795 669.642 578.651 669.642C578.651 669.642 582.083 669.642 587.041 669.642C594.967 669.642 606.79 669.642 614.716 669.642C619.674 669.642 623.107 669.642 623.107 669.642C630.728 669.642 637.926 668.584 644.7 666.467C651.474 668.584 658.46 669.642 665.658 669.642C665.658 669.642 669.14 669.642 674.168 669.642C682.207 669.642 694.2 669.642 702.239 669.642C707.268 669.642 710.749 669.642 710.749 669.642C731.496 669.642 749.49 662.233 764.732 647.414C779.551 632.595 786.96 614.601 786.96 593.431V518.491C786.96 482.502 776.375 452.653 755.206 428.943C754.782 428.52 754.359 428.096 753.936 427.673C770.024 425.132 783.996 417.935 795.852 406.08C810.67 391.261 818.08 373.267 818.08 352.097V277.156C818.08 241.168 807.495 211.107 786.325 186.973C762.192 159.876 731.496 146.328 694.237 146.328C692.188 146.328 690.162 146.373 688.158 146.462C681.466 146.763 675.024 147.565 668.833 148.868C666.262 148.4 663.69 148.062 661.118 147.853C659.542 147.724 657.965 147.644 656.388 147.613C655.879 147.603 655.37 147.598 654.861 147.598C654.861 147.598 651.38 147.598 646.351 147.598C638.312 147.598 626.319 147.598 618.28 147.598C613.252 147.598 609.77 147.598 609.77 147.598C608.756 147.598 607.742 147.622 606.728 147.671C603.508 147.825 600.288 148.224 597.068 148.868C592.834 148.021 588.6 147.598 584.366 147.598C584.366 147.598 580.934 147.598 575.976 147.598C568.05 147.598 556.226 147.598 548.3 147.598C543.343 147.598 539.91 147.598 539.91 147.598C539.323 147.598 538.741 147.602 538.163 147.61C536.643 147.631 535.152 147.681 533.689 147.758C531.688 147.864 529.739 148.022 527.843 148.233C522.703 147.462 517.486 146.925 512.19 146.622C510.379 146.518 508.558 146.442 506.729 146.393C505.095 146.349 503.453 146.328 501.805 146.328C501.334 146.328 500.847 146.328 500.344 146.328C499.539 146.328 498.693 146.328 497.804 146.328C497.249 146.328 496.677 146.328 496.089 146.328C492.702 139.977 488.256 134.261 482.752 129.18C467.933 114.361 450.15 106.952 429.404 106.952C429.404 106.952 425.922 106.952 420.894 106.952C412.855 106.952 400.862 106.952 392.823 106.952C387.795 106.952 384.313 106.952 384.313 106.952C363.143 106.952 345.149 114.361 330.33 129.18C324.826 134.261 320.38 139.977 316.993 146.328C315.934 146.328 314.875 146.328 313.817 146.328C312.124 146.328 310.431 146.328 308.738 146.328C307.679 146.328 306.62 146.328 305.561 146.328C304.503 146.328 303.444 146.328 302.385 146.328C300.692 146.328 298.999 146.328 297.306 146.328C296.248 146.328 295.189 146.328 294.13 146.328C291.59 142.94 288.626 139.553 285.239 136.166C270.42 121.771 252.637 114.573 231.891 114.573C231.891 114.573 223.947 114.573 212.473 114.573C194.13 114.573 166.767 114.573 148.424 114.573C136.951 114.573 129.006 114.573 129.006 114.573C107.837 114.573 89.8424 121.982 75.0236 136.801C60.2048 151.62 52.7954 169.614 52.7954 190.784V352.097C52.7954 373.267 60.2048 391.261 75.0236 406.08Z" fill="black"/>
<path d="M429.404 390.202C429.404 390.202 425.922 390.202 420.894 390.202C412.855 390.202 400.862 390.202 392.823 390.202C387.795 390.202 384.313 390.202 384.313 390.202C374.786 390.202 365.895 387.027 358.909 380.676C356.792 381.523 354.675 382.581 352.558 383.852C339.433 389.356 324.826 392.108 308.737 392.108C292.225 392.108 276.982 389.144 263.01 383.216L262.375 382.581C260.682 382.158 258.988 381.523 257.295 380.676C250.309 387.027 242.052 390.202 231.891 390.202C231.891 390.202 223.947 390.202 212.473 390.202C194.13 390.202 166.767 390.202 148.424 390.202C136.951 390.202 129.006 390.202 129.006 390.202C109.954 390.202 90.9009 371.785 90.9009 352.097V190.784C90.9009 171.731 109.954 152.678 129.006 152.678C129.006 152.678 136.951 152.678 148.424 152.678C166.767 152.678 194.13 152.678 212.473 152.678C223.947 152.678 231.891 152.678 231.891 152.678C250.944 152.678 269.361 170.461 269.996 189.514C279.844 186.484 290.369 184.809 301.572 184.49C302.892 184.452 304.222 184.433 305.561 184.433C320.804 184.433 334.352 186.762 346.207 191.419V183.163C346.207 163.475 364.625 145.057 384.313 145.057C384.313 145.057 387.795 145.057 392.823 145.057C400.862 145.057 412.855 145.057 420.894 145.057C425.922 145.057 429.404 145.057 429.404 145.057C448.457 145.057 467.51 163.475 467.51 183.163V190.784C478.094 186.55 489.526 184.433 501.805 184.433C511.119 184.433 519.799 185.492 527.843 187.608C531.654 186.338 535.464 185.703 539.91 185.703C539.91 185.703 543.343 185.703 548.3 185.703C556.226 185.703 568.05 185.703 575.976 185.703C580.934 185.703 584.366 185.703 584.366 185.703C589.447 185.703 592.622 186.338 597.068 188.244C601.514 186.338 605.324 185.703 609.77 185.703C609.77 185.703 613.252 185.703 618.28 185.703C626.319 185.703 638.312 185.703 646.351 185.703C651.38 185.703 654.861 185.703 654.861 185.703C659.942 185.703 663.753 186.338 668.198 188.244C675.436 185.958 683.187 184.701 691.452 184.471C692.374 184.446 693.302 184.433 694.237 184.433C720.064 184.433 741.234 193.748 757.746 212.377C772.565 229.313 779.974 250.906 779.974 277.156V352.097C779.974 371.785 761.557 390.202 741.869 390.202C741.869 390.202 738.436 390.202 733.478 390.202C725.552 390.202 713.729 390.202 705.803 390.202C700.845 390.202 697.412 390.202 697.412 390.202C689.156 390.202 682.805 388.297 675.819 383.852C669.468 388.297 663.118 390.202 654.861 390.202C654.861 390.202 653.734 390.202 652.105 390.202C649.5 390.202 645.615 390.202 643.011 390.202C641.382 390.202 640.254 390.202 640.254 390.202C652.956 396.553 661.212 409.89 661.212 424.497V425.767C661.33 425.767 661.448 425.767 661.565 425.767C661.753 425.767 661.941 425.767 662.13 425.767C662.247 425.767 662.365 425.767 662.482 425.767C688.733 425.767 709.903 435.082 725.992 453.711C741.234 470.647 748.855 492.24 748.855 518.491V593.431C748.855 613.119 729.802 631.537 710.749 631.537C710.749 631.537 707.268 631.537 702.239 631.537C694.2 631.537 682.207 631.537 674.168 631.537C669.14 631.537 665.658 631.537 665.658 631.537C658.037 631.537 651.051 629.632 644.7 625.186C637.714 629.632 631.363 631.537 623.107 631.537C623.107 631.537 619.674 631.537 614.716 631.537C606.79 631.537 594.967 631.537 587.041 631.537C582.083 631.537 578.651 631.537 578.651 631.537C567.219 631.537 557.693 627.091 550.707 619.47C535.041 628.785 517.258 633.442 497.359 633.442C478.306 633.442 460.947 629.208 445.281 620.74C438.507 616.93 432.156 612.484 426.229 607.403C419.031 613.754 410.563 619.258 400.825 623.916C387.276 630.267 372.458 633.442 356.369 633.442C337.316 633.442 319.957 629.208 304.291 620.74C293.706 614.813 284.604 607.192 276.982 597.877C274.442 616.295 257.295 631.537 238.877 631.537C238.877 631.537 235.444 631.537 230.487 631.537C222.561 631.537 210.737 631.537 202.811 631.537C197.853 631.537 194.421 631.537 194.421 631.537C174.733 631.537 156.315 613.119 156.315 593.431V505.789C156.315 505.789 155.972 505.789 155.476 505.789C154.684 505.789 153.501 505.789 152.709 505.789C152.213 505.789 151.87 505.789 151.87 505.789C132.182 505.789 113.764 487.371 113.764 467.683V432.118C113.764 413.066 132.182 394.013 151.87 394.013C151.87 394.013 161.923 394.013 176.442 394.013C199.653 394.013 234.279 394.013 257.491 394.013C272.01 394.013 282.063 394.013 282.063 394.013C301.116 394.013 319.533 411.795 320.169 431.483C331.6 427.673 343.667 425.767 356.369 425.767C375.421 425.767 392.569 429.79 407.811 437.834C415.009 441.645 421.36 446.09 426.864 451.171C432.368 446.09 438.507 441.645 445.281 437.834C460.947 429.79 478.306 425.767 497.359 425.767C513.024 425.767 527.42 428.52 540.545 434.024V424.497C540.545 409.89 548.166 396.553 561.503 390.202C561.503 390.202 559.836 390.202 557.428 390.202C553.578 390.202 547.835 390.202 543.985 390.202C541.577 390.202 539.91 390.202 539.91 390.202C535.464 390.202 531.654 389.567 527.843 388.297C520.606 390.583 512.855 391.84 504.589 392.069C503.668 392.095 502.739 392.108 501.805 392.108C485.292 392.108 470.05 387.874 456.078 379.406C448.457 386.392 439.566 390.202 429.404 390.202ZM501.805 287.953C501.805 289.646 502.863 291.763 504.98 294.304V294.939C504.98 294.939 504.996 294.939 505.029 294.939C505.081 294.939 505.175 294.939 505.311 294.939C505.396 294.939 505.497 294.939 505.615 294.939C505.615 294.939 505.566 294.939 505.495 294.939C505.382 294.939 505.213 294.939 505.1 294.939C505.029 294.939 504.98 294.939 504.98 294.939C508.367 297.903 512.178 299.384 516.412 299.384C520.646 299.384 524.244 297.691 527.208 294.304C529.749 291.763 531.019 289.646 531.019 287.953C531.019 286.259 529.96 284.354 527.843 282.237C524.456 278.426 520.646 276.521 516.412 276.521C511.754 276.521 507.944 278.215 504.98 281.602C502.863 283.719 501.805 285.836 501.805 287.953Z" fill="white"/>
<path d="M221.115 227.06C210.721 227.06 195.215 227.06 184.821 227.06C178.319 227.06 173.818 227.06 173.818 227.06V253.353C173.818 253.353 177.79 253.353 183.527 253.353C192.698 253.353 206.38 253.353 215.551 253.353C221.288 253.353 225.26 253.353 225.26 253.353V287.419C225.26 287.419 221.288 287.419 215.551 287.419C206.38 287.419 192.698 287.419 183.527 287.419C177.79 287.419 173.818 287.419 173.818 287.419V316.456C173.818 316.456 178.319 316.456 184.821 316.456C195.215 316.456 210.721 316.456 221.115 316.456C227.617 316.456 232.119 316.456 232.119 316.456V352.351C232.119 352.351 224.157 352.351 212.658 352.351C194.274 352.351 166.85 352.351 148.467 352.351C136.968 352.351 129.006 352.351 129.006 352.351V191.165C129.006 191.165 136.968 191.165 148.467 191.165C166.85 191.165 194.274 191.165 212.658 191.165C224.157 191.165 232.119 191.165 232.119 191.165V227.06C232.119 227.06 227.617 227.06 221.115 227.06Z" fill="black" fill-opacity="0.95"/>
<path d="M308.906 353.952C297.321 353.952 286.957 352.046 277.811 348.236C268.819 344.273 261.655 338.938 256.32 332.231C251.138 325.372 248.242 317.675 247.632 309.14C247.632 309.14 250.986 309.14 255.831 309.14C263.575 309.14 275.129 309.14 282.874 309.14C287.718 309.14 291.072 309.14 291.072 309.14C291.682 313.255 293.587 316.456 296.788 318.742C299.989 321.028 303.952 322.172 308.677 322.172C312.335 322.172 315.231 321.409 317.365 319.885C319.499 318.361 320.566 316.38 320.566 313.941C320.566 310.74 318.813 308.377 315.307 306.853C311.802 305.329 306.01 303.652 297.931 301.823C288.786 299.994 281.165 297.937 275.068 295.65C268.971 293.364 263.636 289.63 259.064 284.447C254.643 279.265 252.433 272.253 252.433 263.413C252.433 255.792 254.491 248.933 258.606 242.836C262.722 236.587 268.742 231.633 276.668 227.975C284.747 224.317 294.425 222.488 305.705 222.488C322.471 222.488 335.656 226.603 345.258 234.834C354.861 243.065 360.424 253.887 361.948 267.3C361.948 267.3 358.824 267.3 354.311 267.3C347.096 267.3 336.333 267.3 329.118 267.3C324.605 267.3 321.48 267.3 321.48 267.3C320.718 263.184 318.889 260.06 315.993 257.926C313.25 255.639 309.515 254.496 304.79 254.496C301.132 254.496 298.312 255.182 296.331 256.554C294.502 257.926 293.587 259.831 293.587 262.27C293.587 265.318 295.34 267.681 298.846 269.357C302.351 270.882 307.991 272.482 315.765 274.159C325.062 276.14 332.76 278.35 338.856 280.789C345.106 283.228 350.517 287.191 355.089 292.678C359.814 298.013 362.177 305.329 362.177 314.627C362.177 322.095 359.967 328.802 355.547 334.746C351.279 340.691 345.106 345.416 337.027 348.922C329.101 352.275 319.727 353.952 308.906 353.952Z" fill="black" fill-opacity="0.95"/>
<path d="M392.665 183.163C400.655 183.163 412.573 183.163 420.562 183.163C425.56 183.163 429.02 183.163 429.02 183.163V352.351C429.02 352.351 425.56 352.351 420.562 352.351C412.573 352.351 400.655 352.351 392.665 352.351C387.668 352.351 384.208 352.351 384.208 352.351V183.163C384.208 183.163 387.668 183.163 392.665 183.163Z" fill="black" fill-opacity="0.95"/>
<path d="M447.223 288.105C447.223 274.845 449.585 263.261 454.311 253.353C459.188 243.446 465.742 235.825 473.973 230.49C482.356 225.155 491.654 222.488 501.866 222.488C510.707 222.488 518.328 224.241 524.729 227.746C531.131 231.252 536.085 235.977 539.591 241.922V224.088C539.591 224.088 543.051 224.088 548.048 224.088C556.037 224.088 567.956 224.088 575.945 224.088C580.942 224.088 584.402 224.088 584.402 224.088V352.351C584.402 352.351 580.942 352.351 575.945 352.351C567.956 352.351 556.037 352.351 548.048 352.351C543.051 352.351 539.591 352.351 539.591 352.351V334.518C536.085 340.462 531.055 345.187 524.501 348.693C518.099 352.199 510.554 353.952 501.866 353.952C491.654 353.952 482.356 351.284 473.973 345.949C465.742 340.615 459.188 332.994 454.311 323.086C449.585 313.026 447.223 301.366 447.223 288.105ZM539.591 288.105C539.591 279.875 537.304 273.397 532.732 268.672C528.311 263.946 522.824 261.584 516.27 261.584C509.563 261.584 504 263.946 499.58 268.672C495.16 273.244 492.949 279.722 492.949 288.105C492.949 296.336 495.16 302.89 499.58 307.768C504 312.493 509.563 314.855 516.27 314.855C522.824 314.855 528.311 312.493 532.732 307.768C537.304 303.043 539.591 296.489 539.591 288.105Z" fill="black" fill-opacity="0.95"/>
<path d="M693.846 222.945C708.631 222.945 720.367 227.899 729.056 237.806C737.744 247.561 742.088 260.822 742.088 277.588V352.351C742.088 352.351 738.627 352.351 733.63 352.351C725.641 352.351 713.722 352.351 705.733 352.351C700.736 352.351 697.276 352.351 697.276 352.351V283.533C697.276 276.216 695.37 270.501 691.56 266.385C687.749 262.117 682.643 259.984 676.241 259.984C669.535 259.984 664.276 262.117 660.466 266.385C656.655 270.501 654.75 276.216 654.75 283.533V352.351C654.75 352.351 651.29 352.351 646.292 352.351C638.303 352.351 626.385 352.351 618.396 352.351C613.398 352.351 609.938 352.351 609.938 352.351V224.088C609.938 224.088 613.398 224.088 618.396 224.088C626.385 224.088 638.303 224.088 646.292 224.088C651.29 224.088 654.75 224.088 654.75 224.088V242.379C658.713 236.587 664.048 231.938 670.754 228.432C677.461 224.774 685.158 222.945 693.846 222.945Z" fill="black" fill-opacity="0.95"/>
<path d="M176.278 432.5C199.513 432.5 234.172 432.5 257.407 432.5C271.94 432.5 282.003 432.5 282.003 432.5V468.166C282.003 468.166 278.684 468.166 273.89 468.166C266.227 468.166 254.795 468.166 247.132 468.166C242.339 468.166 239.02 468.166 239.02 468.166V593.686C239.02 593.686 235.56 593.686 230.562 593.686C222.573 593.686 210.655 593.686 202.665 593.686C197.668 593.686 194.208 593.686 194.208 593.686V468.166C194.208 468.166 190.924 468.166 186.182 468.166C178.6 468.166 167.29 468.166 159.708 468.166C154.966 468.166 151.682 468.166 151.682 468.166V432.5C151.682 432.5 161.745 432.5 176.278 432.5Z" fill="black" fill-opacity="0.95"/>
<path d="M421.129 528.068C421.129 531.574 420.901 535.079 420.443 538.585C420.443 538.585 413.894 538.585 404.434 538.585C389.312 538.585 366.752 538.585 351.63 538.585C342.17 538.585 335.621 538.585 335.621 538.585C336.078 545.596 337.983 550.855 341.337 554.361C344.842 557.714 349.262 559.391 354.597 559.391C362.066 559.391 367.401 556.037 370.602 549.331C370.602 549.331 374.291 549.331 379.62 549.331C388.139 549.331 400.848 549.331 409.367 549.331C414.696 549.331 418.386 549.331 418.386 549.331C416.404 558.171 412.518 566.097 406.725 573.109C401.086 579.968 393.922 585.379 385.234 589.342C376.546 593.305 366.943 595.286 356.426 595.286C343.775 595.286 332.496 592.619 322.589 587.284C312.834 581.949 305.136 574.328 299.497 564.421C294.01 554.513 291.266 542.853 291.266 529.44C291.266 516.027 294.01 504.443 299.497 494.688C304.984 484.78 312.605 477.159 322.36 471.824C332.267 466.49 343.623 463.822 356.426 463.822C369.077 463.822 380.28 466.413 390.035 471.596C399.79 476.778 407.411 484.247 412.899 494.002C418.386 503.604 421.129 514.96 421.129 528.068ZM343.314 516.865C350.366 516.865 360.886 516.865 367.938 516.865C372.349 516.865 375.403 516.865 375.403 516.865C375.403 511.378 373.574 507.11 369.916 504.062C366.258 500.861 361.685 499.26 356.198 499.26C350.71 499.26 346.214 500.784 342.708 503.833C339.203 506.729 336.916 511.073 335.849 516.865C335.849 516.865 338.904 516.865 343.314 516.865Z" fill="black" fill-opacity="0.95"/>
<path d="M432.152 529.44C432.152 516.179 434.896 504.595 440.383 494.688C445.87 484.78 453.491 477.159 463.246 471.824C473.153 466.49 484.433 463.822 497.084 463.822C513.393 463.822 527.111 468.319 538.237 477.312C549.364 486.152 556.528 498.574 559.729 514.579C559.729 514.579 556.057 514.579 550.754 514.579C542.275 514.579 529.627 514.579 521.149 514.579C515.845 514.579 512.173 514.579 512.173 514.579C509.43 506.195 504.095 502.004 496.169 502.004C490.529 502.004 486.033 504.366 482.68 509.091C479.479 513.664 477.878 520.447 477.878 529.44C477.878 538.433 479.479 545.292 482.68 550.017C486.033 554.742 490.529 557.104 496.169 557.104C504.247 557.104 509.582 552.913 512.173 544.53C512.173 544.53 515.845 544.53 521.149 544.53C529.627 544.53 542.275 544.53 550.754 544.53C556.057 544.53 559.729 544.53 559.729 544.53C556.528 560.381 549.364 572.804 538.237 581.797C527.111 590.79 513.393 595.286 497.084 595.286C484.433 595.286 473.153 592.619 463.246 587.284C453.491 581.949 445.87 574.328 440.383 564.421C434.896 554.513 432.152 542.853 432.152 529.44Z" fill="black" fill-opacity="0.95"/>
<path d="M662.71 464.279C677.343 464.279 688.927 469.233 697.462 479.141C706.15 488.896 710.494 502.156 710.494 518.923V593.686C710.494 593.686 707.034 593.686 702.037 593.686C694.047 593.686 682.129 593.686 674.14 593.686C669.142 593.686 665.682 593.686 665.682 593.686V524.867C665.682 517.551 663.777 511.835 659.966 507.72C656.156 503.452 651.05 501.318 644.648 501.318C637.942 501.318 632.683 503.452 628.872 507.72C625.062 511.835 623.157 517.551 623.157 524.867V593.686C623.157 593.686 619.696 593.686 614.699 593.686C606.71 593.686 594.792 593.686 586.802 593.686C581.805 593.686 578.345 593.686 578.345 593.686V424.497C578.345 424.497 581.805 424.497 586.802 424.497C594.792 424.497 606.71 424.497 614.699 424.497C619.696 424.497 623.157 424.497 623.157 424.497V483.713C627.12 477.921 632.454 473.272 639.161 469.767C646.02 466.109 653.87 464.279 662.71 464.279Z" fill="black" fill-opacity="0.95"/>
<path d="M533.477 288.842C533.477 295.857 526.368 301.544 517.599 301.544C508.831 301.544 501.722 295.857 501.722 288.842C501.722 281.827 508.831 276.14 517.599 276.14C526.368 276.14 533.477 281.827 533.477 288.842Z" fill="white"/>
<path d="M47.7249 392.185C49.0004 393.514 50.2759 394.621 51.5513 395.507C49.4255 403.037 48.3627 411.009 48.3627 419.425V456.63C48.3627 478.776 55.8028 497.6 70.6831 513.102C77.0603 519.746 83.8627 524.84 91.0903 528.383V588.177C91.0903 610.323 98.5304 629.148 113.411 644.65C128.291 660.152 146.36 667.903 167.617 667.903H212.258C230.115 667.903 245.845 662.367 259.45 651.294C259.45 651.294 259.663 651.515 260.088 651.958C281.345 663.917 304.728 669.896 330.238 669.896C351.92 669.896 372.115 665.246 390.821 655.944C394.223 654.616 397.411 653.065 400.387 651.294C400.813 651.294 401.238 651.515 401.663 651.958C422.92 663.917 446.304 669.896 471.813 669.896C489.244 669.896 505.825 667.017 521.555 661.259C530.909 665.689 541.537 667.903 553.442 667.903H598.082C605.735 667.903 612.963 666.796 619.765 664.581C626.567 666.796 633.582 667.903 640.81 667.903H686.089C706.921 667.903 724.99 660.152 740.295 644.65C755.176 629.148 762.616 610.323 762.616 588.177V509.781C762.616 472.132 751.987 440.906 730.729 416.103C730.304 415.66 729.879 415.217 729.454 414.774C745.61 412.117 759.64 404.587 771.544 392.185C786.424 376.683 793.864 357.859 793.864 335.713V257.316C793.864 219.668 783.236 188.22 761.978 162.974C737.744 134.627 706.921 120.454 669.508 120.454C660.58 120.454 652.077 121.339 643.999 123.111C639.322 122.225 634.645 121.782 629.969 121.782H584.69C580.439 121.782 576.187 122.225 571.936 123.111C567.684 122.225 563.433 121.782 559.181 121.782H514.54C510.289 121.782 506.25 122.004 502.424 122.447C493.921 121.118 485.205 120.454 476.277 120.454C474.576 120.454 472.663 120.454 470.537 120.454C467.136 113.81 462.672 107.83 457.145 102.515C442.265 87.0131 424.408 79.262 403.576 79.262H358.297C337.04 79.262 318.971 87.0131 304.091 102.515C298.564 107.83 294.1 113.81 290.698 120.454C286.872 120.454 283.046 120.454 279.219 120.454C275.393 120.454 271.567 120.454 267.74 120.454C265.189 116.91 262.213 113.367 258.812 109.823C243.932 94.7642 226.076 87.2345 205.243 87.2345H101.932C80.6741 87.2345 62.6052 94.9856 47.7249 110.488C32.8447 125.99 25.4045 144.814 25.4045 166.96V335.713C25.4045 357.859 32.8447 376.683 47.7249 392.185Z" fill="black"/>
<path d="M403.576 375.576H358.297C348.732 375.576 339.803 372.254 332.788 365.61C330.663 366.496 328.537 367.603 326.411 368.932C313.232 374.69 298.564 377.569 282.408 377.569C265.827 377.569 250.522 374.468 236.492 368.268L235.854 367.603C234.153 367.16 232.453 366.496 230.752 365.61C223.737 372.254 215.447 375.576 205.243 375.576H101.932C82.7999 375.576 63.6681 356.309 63.6681 335.713V166.96C63.6681 147.029 82.7999 127.097 101.932 127.097H205.243C224.375 127.097 242.869 145.7 243.507 165.631C254.561 162.088 266.465 160.316 279.219 160.316C294.525 160.316 308.13 162.752 320.034 167.625V158.988C320.034 138.392 338.528 119.125 358.297 119.125H403.576C422.708 119.125 441.84 138.392 441.84 158.988V166.96C452.468 162.531 463.947 160.316 476.277 160.316C485.63 160.316 494.346 161.424 502.424 163.638C506.25 162.31 510.076 161.645 514.54 161.645H559.181C564.283 161.645 567.472 162.31 571.936 164.303C576.4 162.31 580.226 161.645 584.69 161.645H629.969C635.07 161.645 638.897 162.31 643.361 164.303C651.439 161.645 660.154 160.316 669.508 160.316C695.442 160.316 716.699 170.061 733.28 189.549C748.161 207.266 755.601 229.855 755.601 257.316V335.713C755.601 356.309 737.107 375.576 717.337 375.576H672.696C664.406 375.576 658.029 373.583 651.014 368.932C644.636 373.583 638.259 375.576 629.969 375.576H615.301C628.055 382.219 636.346 396.172 636.346 411.452V412.781C636.771 412.781 637.196 412.781 637.621 412.781C663.981 412.781 685.238 422.525 701.394 442.014C716.699 459.731 724.352 482.32 724.352 509.781V588.177C724.352 608.773 705.22 628.04 686.089 628.04H640.81C633.157 628.04 626.142 626.047 619.765 621.396C612.75 626.047 606.373 628.04 598.082 628.04H553.442C541.963 628.04 532.397 623.39 525.382 615.417C509.651 625.161 491.795 630.033 471.813 630.033C452.681 630.033 435.25 625.604 419.519 616.746C412.717 612.76 406.339 608.109 400.387 602.794C393.16 609.438 384.657 615.196 374.878 620.068C361.274 626.712 346.393 630.033 330.238 630.033C311.106 630.033 293.675 625.604 277.944 616.746C267.315 610.545 258.174 602.572 250.522 592.828C247.971 612.095 230.752 628.04 212.258 628.04H167.617C147.848 628.04 129.354 608.773 129.354 588.177V496.493H124.89C105.12 496.493 86.6262 477.226 86.6262 456.63V419.425C86.6262 399.493 105.12 379.562 124.89 379.562H255.624C274.755 379.562 293.249 398.165 293.887 418.76C305.366 414.774 317.483 412.781 330.238 412.781C349.369 412.781 366.588 416.989 381.893 425.404C389.121 429.391 395.498 434.041 401.025 439.356C406.552 434.041 412.717 429.391 419.519 425.404C435.25 416.989 452.681 412.781 471.813 412.781C487.543 412.781 501.998 415.66 515.178 421.418V411.452C515.178 396.172 522.831 382.219 536.223 375.576H514.54C510.076 375.576 506.25 374.911 502.424 373.583C494.346 376.24 485.63 377.569 476.277 377.569C459.696 377.569 444.39 373.14 430.36 364.281C422.708 371.589 413.78 375.576 403.576 375.576ZM476.277 268.61C476.277 270.382 477.34 272.597 479.465 275.254V275.919C479.465 275.919 479.678 275.919 480.103 275.919H479.465C482.867 279.019 486.693 280.569 490.944 280.569C495.196 280.569 498.81 278.798 501.786 275.254C504.337 272.597 505.612 270.382 505.612 268.61C505.612 266.839 504.549 264.846 502.424 262.631C499.022 258.645 495.196 256.652 490.944 256.652C486.268 256.652 482.441 258.423 479.465 261.967C477.34 264.181 476.277 266.396 476.277 268.61Z" fill="black"/>
<path d="M146.929 204.91V232.415H198.585V268.052H146.929V298.428H205.472V335.979H101.931V167.359H205.472V204.91H146.929Z" fill="black" fill-opacity="0.95"/>
<path d="M282.577 337.653C270.945 337.653 260.538 335.66 251.354 331.674C242.324 327.528 235.131 321.947 229.774 314.931C224.57 307.756 221.662 299.704 221.05 290.774H264.67C265.282 295.079 267.195 298.428 270.41 300.82C273.624 303.211 277.603 304.407 282.348 304.407C286.021 304.407 288.929 303.61 291.072 302.016C293.215 300.421 294.286 298.348 294.286 295.797C294.286 292.448 292.526 289.977 289.006 288.382C285.485 286.788 279.669 285.034 271.557 283.121C262.374 281.207 254.721 279.055 248.599 276.663C242.477 274.271 237.12 270.364 232.529 264.943C228.09 259.522 225.871 252.187 225.871 242.939C225.871 234.966 227.937 227.791 232.069 221.413C236.202 214.875 242.248 209.693 250.206 205.866C258.318 202.04 268.037 200.126 279.363 200.126C296.199 200.126 309.438 204.431 319.081 213.042C328.723 221.652 334.31 232.973 335.84 247.005H295.204C294.439 242.7 292.602 239.431 289.694 237.199C286.939 234.807 283.19 233.611 278.445 233.611C274.772 233.611 271.94 234.328 269.95 235.764C268.114 237.199 267.195 239.192 267.195 241.743C267.195 244.932 268.956 247.403 272.476 249.157C275.996 250.752 281.659 252.426 289.465 254.18C298.801 256.253 306.53 258.565 312.653 261.116C318.928 263.668 324.361 267.813 328.953 273.554C333.697 279.134 336.07 286.788 336.07 296.515C336.07 304.328 333.851 311.343 329.412 317.562C325.126 323.781 318.928 328.724 310.816 332.391C302.857 335.899 293.444 337.653 282.577 337.653Z" fill="black" fill-opacity="0.95"/>
<path d="M403.19 158.988V335.979H358.192V158.988H403.19Z" fill="black" fill-opacity="0.95"/>
<path d="M421.469 268.77C421.469 254.898 423.841 242.779 428.586 232.415C433.483 222.051 440.065 214.078 448.33 208.497C456.748 202.917 466.084 200.126 476.339 200.126C485.216 200.126 492.868 201.96 499.297 205.627C505.725 209.295 510.699 214.238 514.22 220.456V201.8H559.217V335.979H514.22V317.323C510.699 323.542 505.648 328.484 499.067 332.152C492.639 335.819 485.063 337.653 476.339 337.653C466.084 337.653 456.748 334.863 448.33 329.282C440.065 323.701 433.483 315.728 428.586 305.364C423.841 294.84 421.469 282.642 421.469 268.77ZM514.22 268.77C514.22 260.16 511.924 253.383 507.332 248.44C502.894 243.497 497.384 241.025 490.802 241.025C484.068 241.025 478.481 243.497 474.043 248.44C469.604 253.223 467.385 260 467.385 268.77C467.385 277.38 469.604 284.237 474.043 289.339C478.481 294.282 484.068 296.754 490.802 296.754C497.384 296.754 502.894 294.282 507.332 289.339C511.924 284.396 514.22 277.54 514.22 268.77Z" fill="black" fill-opacity="0.95"/>
<path d="M669.115 200.605C683.961 200.605 695.747 205.787 704.471 216.151C713.195 226.356 717.557 240.228 717.557 257.768V335.979H672.559V263.986C672.559 256.333 670.646 250.353 666.819 246.048C662.993 241.584 657.866 239.351 651.437 239.351C644.703 239.351 639.423 241.584 635.596 246.048C631.77 250.353 629.857 256.333 629.857 263.986V335.979H584.859V201.8H629.857V220.935C633.836 214.875 639.193 210.012 645.927 206.345C652.662 202.518 660.391 200.605 669.115 200.605Z" fill="black" fill-opacity="0.95"/>
<path d="M255.563 419.824V457.135H212.402V588.443H167.404V457.135H124.702V419.824H255.563Z" fill="black" fill-opacity="0.95"/>
<path d="M395.267 519.8C395.267 523.467 395.037 527.134 394.578 530.802H309.403C309.863 538.136 311.776 543.638 315.143 547.305C318.663 550.813 323.102 552.567 328.459 552.567C335.958 552.567 341.315 549.059 344.529 542.043H392.512C390.522 551.291 386.619 559.583 380.803 566.917C375.14 574.093 367.947 579.753 359.223 583.899C350.498 588.045 340.856 590.118 330.295 590.118C317.592 590.118 306.266 587.327 296.317 581.746C286.522 576.166 278.793 568.193 273.13 557.829C267.62 547.464 264.865 535.266 264.865 521.235C264.865 507.203 267.62 495.085 273.13 484.88C278.639 474.515 286.292 466.543 296.088 460.962C306.036 455.381 317.439 452.591 330.295 452.591C342.999 452.591 354.248 455.301 364.044 460.723C373.839 466.144 381.492 473.957 387.002 484.162C392.512 494.208 395.267 506.087 395.267 519.8ZM349.351 508.08C349.351 502.34 347.514 497.875 343.841 494.686C340.167 491.337 335.576 489.663 330.066 489.663C324.556 489.663 320.041 491.258 316.52 494.447C313 497.476 310.704 502.021 309.633 508.08H349.351Z" fill="black" fill-opacity="0.95"/>
<path d="M406.335 521.235C406.335 507.362 409.09 495.244 414.6 484.88C420.11 474.515 427.763 466.543 437.558 460.962C447.507 455.381 458.833 452.591 471.536 452.591C487.913 452.591 501.688 457.295 512.861 466.702C524.034 475.95 531.227 488.946 534.442 505.688H486.689C483.934 496.918 478.577 492.533 470.618 492.533C464.955 492.533 460.44 495.005 457.073 499.948C453.858 504.731 452.251 511.827 452.251 521.235C452.251 530.642 453.858 537.818 457.073 542.761C460.44 547.704 464.955 550.175 470.618 550.175C478.73 550.175 484.087 545.79 486.689 537.02H534.442C531.227 553.603 524.034 566.598 512.861 576.006C501.688 585.414 487.913 590.118 471.536 590.118C458.833 590.118 447.507 587.327 437.558 581.746C427.763 576.166 420.11 568.193 414.6 557.829C409.09 547.464 406.335 535.266 406.335 521.235Z" fill="black" fill-opacity="0.95"/>
<path d="M637.85 453.069C652.543 453.069 664.175 458.251 672.746 468.616C681.47 478.821 685.832 492.693 685.832 510.232V588.443H640.835V516.451C640.835 508.797 638.921 502.818 635.095 498.513C631.269 494.048 626.141 491.816 619.713 491.816C612.979 491.816 607.698 494.048 603.872 498.513C600.046 502.818 598.132 508.797 598.132 516.451V588.443H553.134V411.452H598.132V473.399C602.112 467.34 607.469 462.477 614.203 458.809C621.091 454.983 628.973 453.069 637.85 453.069Z" fill="black" fill-opacity="0.95"/>
<path d="M508.08 269.541C508.08 276.879 500.942 282.828 492.137 282.828C483.332 282.828 476.194 276.879 476.194 269.541C476.194 262.202 483.332 256.253 492.137 256.253C500.942 256.253 508.08 262.202 508.08 269.541Z" fill="black"/>
<path d="M22.2282 359.337C23.4984 360.607 24.7685 361.666 26.0387 362.512C23.9217 369.71 22.8633 377.331 22.8633 385.376V420.941C22.8633 442.11 30.2727 460.105 45.0914 474.924C51.4423 481.274 58.2166 486.143 65.4143 489.531V546.689C65.4143 567.858 72.8237 585.853 87.6425 600.671C102.461 615.49 120.456 622.9 141.625 622.9H186.082C203.864 622.9 219.53 617.607 233.078 607.022C233.078 607.022 233.29 607.234 233.713 607.657C254.883 619.089 278.17 624.805 303.573 624.805C325.166 624.805 345.278 620.359 363.907 611.468C367.294 610.198 370.47 608.716 373.433 607.022C373.857 607.022 374.28 607.234 374.703 607.657C395.873 619.089 419.16 624.805 444.563 624.805C461.923 624.805 478.435 622.053 494.101 616.549C503.415 620.783 514 622.9 525.855 622.9H570.311C577.933 622.9 585.13 621.841 591.904 619.724C598.679 621.841 605.665 622.9 612.862 622.9H657.954C678.7 622.9 696.694 615.49 711.937 600.671C726.755 585.853 734.165 567.858 734.165 546.689V471.748C734.165 435.76 723.58 405.91 702.41 382.2C701.987 381.777 701.564 381.353 701.14 380.93C717.229 378.39 731.201 371.192 743.056 359.337C757.875 344.518 765.284 326.524 765.284 305.354V230.414C765.284 194.425 754.699 164.364 733.53 140.231C709.396 113.134 678.7 99.5849 641.442 99.5849C632.55 99.5849 624.082 100.432 616.038 102.125C611.381 101.278 606.723 100.855 602.066 100.855H556.974C552.741 100.855 548.507 101.278 544.273 102.125C540.039 101.278 535.805 100.855 531.571 100.855H487.115C482.881 100.855 478.858 101.067 475.048 101.49C466.58 100.22 457.9 99.5849 449.009 99.5849C447.316 99.5849 445.41 99.5849 443.293 99.5849C439.906 93.234 435.46 87.5182 429.956 82.4375C415.138 67.6187 397.355 60.2093 376.609 60.2093H331.517C310.348 60.2093 292.353 67.6187 277.535 82.4375C272.031 87.5182 267.585 93.234 264.198 99.5849C260.387 99.5849 256.577 99.5849 252.766 99.5849C248.956 99.5849 245.145 99.5849 241.334 99.5849C238.794 96.1978 235.83 92.8106 232.443 89.4235C217.624 75.0281 199.842 67.8304 179.096 67.8304H76.2109C55.0412 67.8304 37.047 75.2398 22.2282 90.0585C7.40939 104.877 0 122.872 0 144.041V305.354C0 326.524 7.40939 344.518 22.2282 359.337Z" fill="black"/>
<path d="M376.609 343.46H331.517C321.991 343.46 313.1 340.284 306.114 333.933C303.997 334.78 301.88 335.839 299.763 337.109C286.638 342.613 272.031 345.365 255.942 345.365C239.429 345.365 224.187 342.401 210.215 336.474L209.58 335.839C207.886 335.415 206.193 334.78 204.499 333.933C197.513 340.284 189.257 343.46 179.096 343.46H76.2109C57.1582 343.46 38.1054 325.042 38.1054 305.354V144.041C38.1054 124.989 57.1582 105.936 76.2109 105.936H179.096C198.148 105.936 216.566 123.718 217.201 142.771C228.209 139.384 240.064 137.69 252.766 137.69C268.008 137.69 281.557 140.019 293.412 144.676V136.42C293.412 116.732 311.83 98.3147 331.517 98.3147H376.609C395.661 98.3147 414.714 116.732 414.714 136.42V144.041C425.299 139.807 436.731 137.69 449.009 137.69C458.324 137.69 467.003 138.749 475.048 140.866C478.858 139.596 482.669 138.961 487.115 138.961H531.571C536.652 138.961 539.827 139.596 544.273 141.501C548.718 139.596 552.529 138.961 556.974 138.961H602.066C607.147 138.961 610.957 139.596 615.403 141.501C623.447 138.961 632.127 137.69 641.442 137.69C667.269 137.69 688.438 147.005 704.951 165.634C719.769 182.57 727.179 204.163 727.179 230.414V305.354C727.179 325.042 708.761 343.46 689.073 343.46H644.617C636.361 343.46 630.01 341.554 623.024 337.109C616.673 341.554 610.322 343.46 602.066 343.46H587.459C600.161 349.811 608.417 363.148 608.417 377.755V379.025C608.84 379.025 609.264 379.025 609.687 379.025C635.938 379.025 657.107 388.339 673.196 406.969C688.438 423.905 696.059 445.498 696.059 471.748V546.689C696.059 566.377 677.007 584.794 657.954 584.794H612.862C605.241 584.794 598.255 582.889 591.904 578.443C584.919 582.889 578.568 584.794 570.311 584.794H525.855C514.423 584.794 504.897 580.349 497.911 572.727C482.246 582.042 464.463 586.699 444.563 586.699C425.511 586.699 408.152 582.466 392.486 573.998C385.712 570.187 379.361 565.741 373.433 560.661C366.236 567.012 357.768 572.516 348.03 577.173C334.481 583.524 319.662 586.699 303.573 586.699C284.521 586.699 267.161 582.466 251.496 573.998C240.911 568.07 231.808 560.449 224.187 551.134C221.647 569.552 204.499 584.794 186.082 584.794H141.625C121.937 584.794 103.52 566.377 103.52 546.689V459.046H99.0742C79.3863 459.046 60.9687 440.629 60.9687 420.941V385.376C60.9687 366.323 79.3863 347.27 99.0742 347.27H229.268C248.32 347.27 266.738 365.053 267.373 384.741C278.805 380.93 290.872 379.025 303.573 379.025C322.626 379.025 339.774 383.047 355.016 391.092C362.213 394.902 368.564 399.348 374.068 404.428C379.573 399.348 385.712 394.902 392.486 391.092C408.152 383.047 425.511 379.025 444.563 379.025C460.229 379.025 474.624 381.777 487.75 387.281V377.755C487.75 363.148 495.371 349.811 508.708 343.46H487.115C482.669 343.46 478.858 342.825 475.048 341.554C467.003 344.095 458.324 345.365 449.009 345.365C432.497 345.365 417.255 341.131 403.283 332.663C395.661 339.649 386.77 343.46 376.609 343.46ZM449.009 241.21C449.009 242.904 450.068 245.021 452.185 247.561V248.196C452.185 248.196 452.396 248.196 452.82 248.196H452.185C455.572 251.16 459.382 252.642 463.616 252.642C467.85 252.642 471.449 250.948 474.413 247.561C476.953 245.021 478.223 242.904 478.223 241.21C478.223 239.517 477.165 237.611 475.048 235.494C471.661 231.684 467.85 229.779 463.616 229.779C458.959 229.779 455.148 231.472 452.185 234.859C450.068 236.976 449.009 239.093 449.009 241.21Z" fill="white"/>
<path d="M121.022 180.318V206.61H172.465V240.677H121.022V269.713H179.323V305.608H76.2102V144.422H179.323V180.318H121.022Z" fill="black" fill-opacity="0.95"/>
<path d="M256.11 307.209C244.526 307.209 234.161 305.304 225.016 301.493C216.023 297.53 208.859 292.195 203.525 285.489C198.342 278.63 195.446 270.932 194.837 262.397H238.277C238.886 266.512 240.792 269.713 243.993 271.999C247.193 274.286 251.156 275.429 255.881 275.429C259.54 275.429 262.436 274.667 264.57 273.143C266.703 271.618 267.77 269.637 267.77 267.198C267.77 263.997 266.018 261.635 262.512 260.111C259.006 258.586 253.214 256.91 245.136 255.081C235.99 253.252 228.369 251.194 222.272 248.908C216.176 246.621 210.841 242.887 206.268 237.705C201.848 232.522 199.638 225.511 199.638 216.67C199.638 209.049 201.696 202.19 205.811 196.093C209.926 189.844 215.947 184.89 223.873 181.232C231.951 177.574 241.63 175.745 252.909 175.745C269.676 175.745 282.86 179.86 292.463 188.091C302.065 196.322 307.629 207.144 309.153 220.557H268.685C267.923 216.442 266.094 213.317 263.198 211.183C260.454 208.897 256.72 207.754 251.995 207.754C248.337 207.754 245.517 208.44 243.535 209.811C241.706 211.183 240.792 213.088 240.792 215.527C240.792 218.576 242.545 220.938 246.05 222.615C249.556 224.139 255.196 225.739 262.969 227.416C272.267 229.398 279.964 231.608 286.061 234.046C292.31 236.485 297.721 240.448 302.294 245.935C307.019 251.27 309.382 258.586 309.382 267.884C309.382 275.353 307.171 282.059 302.751 288.004C298.483 293.948 292.31 298.673 284.232 302.179C276.306 305.532 266.932 307.209 256.11 307.209Z" fill="black" fill-opacity="0.95"/>
<path d="M376.224 136.42V305.608H331.412V136.42H376.224Z" fill="black" fill-opacity="0.95"/>
<path d="M394.427 241.363C394.427 228.102 396.79 216.518 401.515 206.61C406.393 196.703 412.947 189.082 421.178 183.747C429.561 178.412 438.858 175.745 449.071 175.745C457.911 175.745 465.532 177.498 471.934 181.004C478.336 184.509 483.289 189.234 486.795 195.179V177.346H531.607V305.608H486.795V287.775C483.289 293.72 478.259 298.445 471.705 301.95C465.304 305.456 457.759 307.209 449.071 307.209C438.858 307.209 429.561 304.541 421.178 299.207C412.947 293.872 406.393 286.251 401.515 276.343C396.79 266.284 394.427 254.623 394.427 241.363ZM486.795 241.363C486.795 233.132 484.509 226.654 479.936 221.929C475.516 217.204 470.029 214.841 463.475 214.841C456.768 214.841 451.205 217.204 446.784 221.929C442.364 226.502 440.154 232.979 440.154 241.363C440.154 249.593 442.364 256.148 446.784 261.025C451.205 265.75 456.768 268.113 463.475 268.113C470.029 268.113 475.516 265.75 479.936 261.025C484.509 256.3 486.795 249.746 486.795 241.363Z" fill="black" fill-opacity="0.95"/>
<path d="M641.051 176.202C655.836 176.202 667.572 181.156 676.26 191.063C684.948 200.818 689.292 214.079 689.292 230.846V305.608H644.48V236.79C644.48 229.474 642.575 223.758 638.764 219.643C634.954 215.375 629.848 213.241 623.446 213.241C616.739 213.241 611.481 215.375 607.67 219.643C603.86 223.758 601.954 229.474 601.954 236.79V305.608H557.143V177.346H601.954V195.636C605.917 189.844 611.252 185.195 617.959 181.69C624.665 178.031 632.363 176.202 641.051 176.202Z" fill="black" fill-opacity="0.95"/>
<path d="M229.207 385.757V421.424H186.224V546.943H141.412V421.424H98.8868V385.757H229.207Z" fill="black" fill-opacity="0.95"/>
<path d="M368.334 481.325C368.334 484.831 368.105 488.337 367.648 491.842H282.825C283.283 498.854 285.188 504.112 288.541 507.618C292.047 510.971 296.467 512.648 301.802 512.648C309.271 512.648 314.605 509.295 317.806 502.588H365.59C363.609 511.429 359.722 519.355 353.93 526.366C348.29 533.225 341.127 538.636 332.439 542.599C323.751 546.562 314.148 548.543 303.631 548.543C290.98 548.543 279.701 545.876 269.793 540.541C260.038 535.206 252.341 527.585 246.701 517.678C241.214 507.77 238.471 496.11 238.471 482.697C238.471 469.284 241.214 457.7 246.701 447.945C252.189 438.038 259.81 430.416 269.565 425.082C279.472 419.747 290.827 417.08 303.631 417.08C316.282 417.08 327.485 419.671 337.24 424.853C346.995 430.035 354.616 437.504 360.103 447.259C365.59 456.862 368.334 468.217 368.334 481.325ZM322.607 470.122C322.607 464.635 320.778 460.367 317.12 457.319C313.462 454.118 308.889 452.518 303.402 452.518C297.915 452.518 293.419 454.042 289.913 457.09C286.407 459.986 284.121 464.33 283.054 470.122H322.607Z" fill="black" fill-opacity="0.95"/>
<path d="M379.357 482.697C379.357 469.436 382.1 457.852 387.587 447.945C393.074 438.038 400.696 430.416 410.451 425.082C420.358 419.747 431.637 417.08 444.288 417.08C460.597 417.08 474.315 421.576 485.442 430.569C496.569 439.409 503.733 451.832 506.934 467.836H459.378C456.634 459.453 451.3 455.261 443.374 455.261C437.734 455.261 433.238 457.624 429.884 462.349C426.683 466.921 425.083 473.704 425.083 482.697C425.083 491.69 426.683 498.549 429.884 503.274C433.238 507.999 437.734 510.362 443.374 510.362C451.452 510.362 456.787 506.17 459.378 497.787H506.934C503.733 513.639 496.569 526.061 485.442 535.054C474.315 544.047 460.597 548.543 444.288 548.543C431.637 548.543 420.358 545.876 410.451 540.541C400.696 535.206 393.074 527.585 387.587 517.678C382.1 507.77 379.357 496.11 379.357 482.697Z" fill="black" fill-opacity="0.95"/>
<path d="M609.915 417.537C624.547 417.537 636.131 422.49 644.667 432.398C653.355 442.153 657.699 455.414 657.699 472.18V546.943H612.887V478.124C612.887 470.808 610.982 465.092 607.171 460.977C603.361 456.709 598.254 454.575 591.853 454.575C585.146 454.575 579.888 456.709 576.077 460.977C572.266 465.092 570.361 470.808 570.361 478.124V546.943H525.549V377.755H570.361V436.971C574.324 431.179 579.659 426.53 586.366 423.024C593.224 419.366 601.074 417.537 609.915 417.537Z" fill="black" fill-opacity="0.95"/>
<path d="M480.681 242.099C480.681 249.114 473.573 254.801 464.804 254.801C456.035 254.801 448.927 249.114 448.927 242.099C448.927 235.084 456.035 229.398 464.804 229.398C473.573 229.398 480.681 235.084 480.681 242.099Z" fill="white"/>
<path d="M730.46 5.2003C731.737 -1.73343 741.674 -1.73343 742.952 5.20029L758.636 90.3415C759.114 92.9323 761.141 94.9594 763.732 95.4367L848.873 111.122C855.807 112.399 855.807 122.336 848.873 123.613L763.732 139.298C761.141 139.775 759.114 141.803 758.636 144.393L742.952 229.535C741.674 236.468 731.737 236.468 730.46 229.535L714.775 144.393C714.298 141.803 712.271 139.775 709.68 139.298L624.539 123.613C617.605 122.336 617.605 112.399 624.539 111.122L709.68 95.4367C712.271 94.9594 714.298 92.9323 714.775 90.3415L730.46 5.2003Z" fill="#FFD500"/>
<path fill-rule="evenodd" clip-rule="evenodd" d="M752.391 91.4921L736.706 6.3509L721.021 91.4921C720.066 96.6737 716.012 100.728 710.831 101.683L625.689 117.367L710.831 133.052C716.012 134.007 720.066 138.061 721.021 143.243L736.706 228.384L752.391 143.243C753.345 138.061 757.4 134.007 762.581 133.052L847.722 117.367L762.581 101.683C757.399 100.728 753.345 96.6737 752.391 91.4921ZM742.952 5.20029C741.674 -1.73344 731.737 -1.73343 730.46 5.2003L714.775 90.3415C714.298 92.9323 712.271 94.9594 709.68 95.4367L624.539 111.122C617.605 112.399 617.605 122.336 624.539 123.613L709.68 139.298C712.271 139.775 714.298 141.803 714.775 144.393L730.46 229.535C731.737 236.468 741.674 236.468 742.952 229.535L758.636 144.393C759.114 141.803 761.141 139.775 763.732 139.298L848.873 123.613C855.807 122.336 855.807 112.399 848.873 111.122L763.732 95.4367C761.141 94.9594 759.114 92.9323 758.636 90.3415L742.952 5.20029Z" fill="black"/>
<path d="M92.1919 557.729C93.4693 550.795 103.406 550.795 104.684 557.729L112.959 602.648C113.436 605.239 115.463 607.266 118.054 607.744L162.973 616.019C169.907 617.296 169.907 627.233 162.973 628.51L118.054 636.785C115.463 637.263 113.436 639.29 112.959 641.88L104.684 686.8C103.406 693.733 93.4693 693.733 92.1919 686.8L83.9169 641.88C83.4396 639.29 81.4124 637.263 78.8217 636.785L33.9024 628.51C26.9687 627.233 26.9687 617.296 33.9024 616.019L78.8217 607.744C81.4124 607.266 83.4396 605.239 83.9169 602.648L92.1919 557.729Z" fill="#FFD500"/>
<path fill-rule="evenodd" clip-rule="evenodd" d="M106.713 603.799L98.4377 558.88L90.1627 603.799C89.2081 608.98 85.1538 613.035 79.9723 613.989L35.0531 622.264L79.9723 630.539C85.1538 631.494 89.2081 635.548 90.1627 640.73L98.4377 685.649L106.713 640.73C107.667 635.548 111.722 631.494 116.903 630.539L161.822 622.264L116.903 613.989C111.722 613.035 107.667 608.98 106.713 603.799ZM104.684 557.729C103.406 550.795 93.4693 550.795 92.1919 557.729L83.9169 602.648C83.4396 605.239 81.4124 607.266 78.8217 607.744L33.9024 616.019C26.9687 617.296 26.9687 627.233 33.9024 628.51L78.8217 636.785C81.4124 637.263 83.4396 639.29 83.9169 641.88L92.1919 686.8C93.4693 693.733 103.406 693.733 104.684 686.8L112.959 641.88C113.436 639.29 115.463 637.263 118.054 636.785L162.973 628.51C169.907 627.233 169.907 617.296 162.973 616.019L118.054 607.744C115.463 607.266 113.436 605.239 112.959 602.648L104.684 557.729Z" fill="black"/>
</svg>
