<svg width="410" height="410" viewBox="0 0 410 410" fill="none" xmlns="http://www.w3.org/2000/svg">
<g clip-path="url(#clip0_5_1296)">
<rect width="410" height="410" fill="white"/>
<g filter="url(#filter0_f_5_1296)">
<ellipse cx="241.5" cy="23" rx="123.5" ry="127" fill="white" fill-opacity="0.95"/>
</g>
<g filter="url(#filter1_f_5_1296)">
<ellipse cx="60.5" cy="257" rx="123.5" ry="127" fill="white" fill-opacity="0.95"/>
</g>
<g filter="url(#filter2_f_5_1296)">
<ellipse cx="29" cy="110.5" rx="112" ry="110.5" fill="white" fill-opacity="0.25"/>
</g>
<g filter="url(#filter3_f_5_1296)">
<ellipse cx="253" cy="222.5" rx="112" ry="110.5" fill="white" fill-opacity="0.25"/>
</g>
<circle cx="320.874" cy="329.874" r="116.503" transform="rotate(-36.4164 320.874 329.874)" stroke="white" stroke-opacity="0.04" stroke-width="50"/>
<circle cx="-30.1257" cy="-34.1257" r="116.503" transform="rotate(-36.4164 -30.1257 -34.1257)" stroke="white" stroke-opacity="0.04" stroke-width="50"/>
<path d="M105.219 221.849C105.578 222.209 105.937 222.508 106.296 222.748C105.698 224.783 105.398 226.939 105.398 229.214V239.273C105.398 245.26 107.494 250.349 111.685 254.54C113.481 256.336 115.397 257.713 117.433 258.671V274.837C117.433 280.824 119.528 285.914 123.719 290.105C127.91 294.296 133 296.391 138.987 296.391C138.987 296.391 139.958 296.391 141.36 296.391C143.602 296.391 146.946 296.391 149.187 296.391C150.59 296.391 151.56 296.391 151.56 296.391C156.59 296.391 161.02 294.895 164.852 291.901C164.852 291.901 164.912 291.961 165.032 292.081C171.019 295.314 177.605 296.93 184.79 296.93C190.897 296.93 196.585 295.673 201.854 293.158C202.812 292.799 203.71 292.38 204.548 291.901C204.668 291.901 204.788 291.961 204.907 292.081C210.895 295.314 217.481 296.93 224.666 296.93C229.575 296.93 234.245 296.152 238.676 294.595C241.31 295.793 244.304 296.391 247.657 296.391C247.657 296.391 248.628 296.391 250.03 296.391C252.271 296.391 255.615 296.391 257.857 296.391C259.259 296.391 260.23 296.391 260.23 296.391C262.386 296.391 264.421 296.092 266.337 295.493C268.253 296.092 270.229 296.391 272.265 296.391C272.265 296.391 273.249 296.391 274.672 296.391C276.945 296.391 280.337 296.391 282.611 296.391C284.033 296.391 285.018 296.391 285.018 296.391C290.885 296.391 295.974 294.296 300.285 290.105C304.476 285.914 306.572 280.824 306.572 274.837V253.642C306.572 243.464 303.578 235.022 297.591 228.316C297.471 228.196 297.352 228.076 297.232 227.956C301.782 227.238 305.734 225.202 309.087 221.849C313.278 217.658 315.373 212.569 315.373 206.582V185.387C315.373 175.208 312.38 166.706 306.392 159.881C299.567 152.217 290.885 148.385 280.348 148.385C279.768 148.385 279.195 148.398 278.628 148.423C276.736 148.508 274.914 148.735 273.163 149.104C272.435 148.971 271.708 148.876 270.981 148.816C270.535 148.78 270.089 148.757 269.643 148.749C269.499 148.746 269.355 148.744 269.211 148.744C269.211 148.744 268.226 148.744 266.804 148.744C264.531 148.744 261.139 148.744 258.865 148.744C257.443 148.744 256.458 148.744 256.458 148.744C256.171 148.744 255.885 148.751 255.598 148.765C254.687 148.809 253.776 148.921 252.866 149.104C251.668 148.864 250.471 148.744 249.273 148.744C249.273 148.744 248.303 148.744 246.9 148.744C244.659 148.744 241.315 148.744 239.073 148.744C237.671 148.744 236.7 148.744 236.7 148.744C236.534 148.744 236.369 148.745 236.206 148.748C235.776 148.754 235.354 148.768 234.941 148.79C234.375 148.82 233.824 148.864 233.287 148.924C231.834 148.706 230.358 148.554 228.86 148.468C228.348 148.439 227.833 148.417 227.316 148.404C226.853 148.391 226.389 148.385 225.923 148.385C225.79 148.385 225.652 148.385 225.51 148.385C225.282 148.385 225.043 148.385 224.792 148.385C224.634 148.385 224.473 148.385 224.306 148.385C223.348 146.589 222.091 144.972 220.534 143.535C216.343 139.344 211.314 137.249 205.446 137.249C205.446 137.249 204.461 137.249 203.039 137.249C200.766 137.249 197.374 137.249 195.1 137.249C193.678 137.249 192.693 137.249 192.693 137.249C186.706 137.249 181.617 139.344 177.426 143.535C175.869 144.972 174.612 146.589 173.654 148.385C173.354 148.385 173.055 148.385 172.755 148.385C172.276 148.385 171.798 148.385 171.319 148.385C171.019 148.385 170.72 148.385 170.42 148.385C170.121 148.385 169.821 148.385 169.522 148.385C169.043 148.385 168.564 148.385 168.086 148.385C167.786 148.385 167.487 148.385 167.187 148.385C166.469 147.427 165.631 146.469 164.673 145.511C160.481 141.44 155.452 139.404 149.585 139.404C149.585 139.404 147.338 139.404 144.093 139.404C138.905 139.404 131.166 139.404 125.978 139.404C122.733 139.404 120.486 139.404 120.486 139.404C114.499 139.404 109.41 141.5 105.219 145.691C101.027 149.882 98.9319 154.971 98.9319 160.958V206.582C98.9319 212.569 101.027 217.658 105.219 221.849Z" fill="black"/>
<path d="M205.446 217.359C205.446 217.359 204.461 217.359 203.039 217.359C200.766 217.359 197.374 217.359 195.1 217.359C193.678 217.359 192.693 217.359 192.693 217.359C189.999 217.359 187.484 216.461 185.508 214.665C184.91 214.904 184.311 215.203 183.712 215.563C180 217.119 175.869 217.898 171.319 217.898C166.648 217.898 162.338 217.06 158.386 215.383L158.206 215.204C157.727 215.084 157.248 214.904 156.769 214.665C154.794 216.461 152.458 217.359 149.585 217.359C149.585 217.359 147.338 217.359 144.093 217.359C138.905 217.359 131.166 217.359 125.978 217.359C122.733 217.359 120.486 217.359 120.486 217.359C115.098 217.359 109.709 212.15 109.709 206.582V160.958C109.709 155.57 115.098 150.181 120.486 150.181C120.486 150.181 122.733 150.181 125.978 150.181C131.166 150.181 138.905 150.181 144.093 150.181C147.338 150.181 149.585 150.181 149.585 150.181C154.973 150.181 160.182 155.211 160.362 160.599C163.147 159.742 166.124 159.269 169.292 159.178C169.666 159.168 170.042 159.162 170.42 159.162C174.731 159.162 178.563 159.821 181.916 161.138V158.803C181.916 153.235 187.125 148.026 192.693 148.026C192.693 148.026 193.678 148.026 195.1 148.026C197.374 148.026 200.766 148.026 203.039 148.026C204.461 148.026 205.446 148.026 205.446 148.026C210.835 148.026 216.223 153.235 216.223 158.803V160.958C219.217 159.761 222.45 159.162 225.923 159.162C228.557 159.162 231.012 159.462 233.287 160.06C234.365 159.701 235.443 159.521 236.7 159.521C236.7 159.521 237.671 159.521 239.073 159.521C241.315 159.521 244.659 159.521 246.9 159.521C248.303 159.521 249.273 159.521 249.273 159.521C250.71 159.521 251.608 159.701 252.866 160.24C254.123 159.701 255.201 159.521 256.458 159.521C256.458 159.521 257.443 159.521 258.865 159.521C261.139 159.521 264.531 159.521 266.804 159.521C268.226 159.521 269.211 159.521 269.211 159.521C270.648 159.521 271.726 159.701 272.983 160.24C275.03 159.594 277.222 159.238 279.56 159.173C279.821 159.166 280.083 159.162 280.348 159.162C287.652 159.162 293.639 161.797 298.309 167.065C302.501 171.855 304.596 177.962 304.596 185.387V206.582C304.596 212.15 299.387 217.359 293.819 217.359C293.819 217.359 292.848 217.359 291.446 217.359C289.204 217.359 285.86 217.359 283.619 217.359C282.217 217.359 281.246 217.359 281.246 217.359C278.911 217.359 277.114 216.82 275.139 215.563C273.342 216.82 271.546 217.359 269.211 217.359C269.211 217.359 268.892 217.359 268.431 217.359C267.695 217.359 266.596 217.359 265.86 217.359C265.399 217.359 265.08 217.359 265.08 217.359C268.672 219.155 271.007 222.927 271.007 227.058V227.418C271.041 227.418 271.074 227.418 271.107 227.418C271.16 227.418 271.214 227.418 271.267 227.418C271.3 227.418 271.333 227.418 271.367 227.418C278.791 227.418 284.778 230.052 289.329 235.321C293.639 240.111 295.795 246.218 295.795 253.642V274.837C295.795 280.405 290.406 285.614 285.018 285.614C285.018 285.614 284.033 285.614 282.611 285.614C280.337 285.614 276.945 285.614 274.672 285.614C273.249 285.614 272.265 285.614 272.265 285.614C270.109 285.614 268.133 285.075 266.337 283.818C264.361 285.075 262.565 285.614 260.23 285.614C260.23 285.614 259.259 285.614 257.857 285.614C255.615 285.614 252.271 285.614 250.03 285.614C248.628 285.614 247.657 285.614 247.657 285.614C244.424 285.614 241.729 284.357 239.754 282.202C235.323 284.836 230.294 286.153 224.666 286.153C219.277 286.153 214.367 284.956 209.937 282.561C208.021 281.483 206.225 280.226 204.548 278.789C202.512 280.585 200.118 282.142 197.363 283.459C193.531 285.255 189.34 286.153 184.79 286.153C179.401 286.153 174.492 284.956 170.061 282.561C167.068 280.884 164.493 278.729 162.338 276.095C161.619 281.303 156.769 285.614 151.56 285.614C151.56 285.614 150.59 285.614 149.187 285.614C146.946 285.614 143.602 285.614 141.36 285.614C139.958 285.614 138.987 285.614 138.987 285.614C133.419 285.614 128.21 280.405 128.21 274.837V250.05C128.21 250.05 128.113 250.05 127.973 250.05C127.748 250.05 127.414 250.05 127.19 250.05C127.05 250.05 126.953 250.05 126.953 250.05C121.384 250.05 116.175 244.841 116.175 239.273V229.214C116.175 223.825 121.384 218.437 126.953 218.437C126.953 218.437 129.796 218.437 133.902 218.437C140.467 218.437 150.26 218.437 156.825 218.437C160.931 218.437 163.775 218.437 163.775 218.437C169.163 218.437 174.372 223.466 174.552 229.034C177.785 227.956 181.198 227.418 184.79 227.418C190.179 227.418 195.028 228.555 199.339 230.83C201.375 231.908 203.171 233.165 204.728 234.602C206.284 233.165 208.021 231.908 209.937 230.83C214.367 228.555 219.277 227.418 224.666 227.418C229.096 227.418 233.168 228.196 236.88 229.753V227.058C236.88 222.927 239.035 219.155 242.807 217.359C242.807 217.359 242.336 217.359 241.654 217.359C240.566 217.359 238.941 217.359 237.853 217.359C237.172 217.359 236.7 217.359 236.7 217.359C235.443 217.359 234.365 217.179 233.287 216.82C231.24 217.466 229.048 217.822 226.71 217.887C226.45 217.894 226.187 217.898 225.923 217.898C221.253 217.898 216.942 216.7 212.99 214.305C210.835 216.281 208.32 217.359 205.446 217.359ZM225.923 188.44C225.923 188.919 226.222 189.518 226.821 190.236V190.416C226.821 190.416 226.826 190.416 226.835 190.416C226.85 190.416 226.876 190.416 226.915 190.416C226.939 190.416 226.967 190.416 227.001 190.416C227.001 190.416 226.987 190.416 226.967 190.416C226.935 190.416 226.887 190.416 226.855 190.416C226.835 190.416 226.821 190.416 226.821 190.416C227.779 191.254 228.857 191.673 230.054 191.673C231.252 191.673 232.269 191.194 233.108 190.236C233.826 189.518 234.185 188.919 234.185 188.44C234.185 187.961 233.886 187.422 233.287 186.824C232.329 185.746 231.252 185.207 230.054 185.207C228.737 185.207 227.659 185.686 226.821 186.644C226.222 187.243 225.923 187.841 225.923 188.44Z" fill="white"/>
<path d="M146.537 171.218C143.597 171.218 139.212 171.218 136.272 171.218C134.433 171.218 133.16 171.218 133.16 171.218V178.655C133.16 178.655 134.283 178.655 135.906 178.655C138.5 178.655 142.369 178.655 144.963 178.655C146.586 178.655 147.709 178.655 147.709 178.655V188.289C147.709 188.289 146.586 188.289 144.963 188.289C142.369 188.289 138.5 188.289 135.906 188.289C134.283 188.289 133.16 188.289 133.16 188.289V196.502C133.16 196.502 134.433 196.502 136.272 196.502C139.212 196.502 143.597 196.502 146.537 196.502C148.376 196.502 149.649 196.502 149.649 196.502V206.654C149.649 206.654 147.397 206.654 144.145 206.654C138.946 206.654 131.189 206.654 125.99 206.654C122.738 206.654 120.486 206.654 120.486 206.654V161.066C120.486 161.066 122.738 161.066 125.99 161.066C131.189 161.066 138.946 161.066 144.145 161.066C147.397 161.066 149.649 161.066 149.649 161.066V171.218C149.649 171.218 148.376 171.218 146.537 171.218Z" fill="black" fill-opacity="0.95"/>
<path d="M171.366 207.106C168.09 207.106 165.159 206.567 162.572 205.49C160.029 204.369 158.003 202.86 156.494 200.963C155.028 199.023 154.209 196.846 154.037 194.432C154.037 194.432 154.985 194.432 156.355 194.432C158.546 194.432 161.813 194.432 164.004 194.432C165.374 194.432 166.322 194.432 166.322 194.432C166.495 195.596 167.034 196.502 167.939 197.148C168.844 197.795 169.965 198.118 171.302 198.118C172.336 198.118 173.155 197.903 173.759 197.471C174.362 197.04 174.664 196.48 174.664 195.79C174.664 194.885 174.168 194.217 173.177 193.786C172.185 193.355 170.547 192.88 168.262 192.363C165.676 191.846 163.52 191.264 161.796 190.617C160.072 189.971 158.563 188.914 157.27 187.449C156.02 185.983 155.394 184 155.394 181.5C155.394 179.344 155.976 177.404 157.14 175.68C158.304 173.913 160.007 172.512 162.249 171.477C164.533 170.442 167.271 169.925 170.461 169.925C175.203 169.925 178.932 171.089 181.648 173.417C184.363 175.745 185.937 178.805 186.368 182.599C186.368 182.599 185.484 182.599 184.208 182.599C182.167 182.599 179.123 182.599 177.083 182.599C175.806 182.599 174.923 182.599 174.923 182.599C174.707 181.435 174.19 180.551 173.371 179.948C172.595 179.301 171.539 178.978 170.202 178.978C169.168 178.978 168.37 179.172 167.81 179.56C167.292 179.948 167.034 180.487 167.034 181.176C167.034 182.039 167.53 182.707 168.521 183.181C169.513 183.612 171.108 184.065 173.306 184.539C175.936 185.099 178.113 185.724 179.837 186.414C181.605 187.104 183.135 188.225 184.428 189.777C185.765 191.285 186.433 193.355 186.433 195.984C186.433 198.097 185.808 199.993 184.557 201.675C183.35 203.356 181.605 204.692 179.32 205.684C177.078 206.632 174.427 207.106 171.366 207.106Z" fill="black" fill-opacity="0.95"/>
<path d="M195.056 158.803C197.315 158.803 200.686 158.803 202.946 158.803C204.359 158.803 205.338 158.803 205.338 158.803V206.654C205.338 206.654 204.359 206.654 202.946 206.654C200.686 206.654 197.315 206.654 195.056 206.654C193.642 206.654 192.664 206.654 192.664 206.654V158.803C192.664 158.803 193.642 158.803 195.056 158.803Z" fill="black" fill-opacity="0.95"/>
<path d="M210.486 188.483C210.486 184.733 211.154 181.457 212.49 178.655C213.87 175.852 215.724 173.697 218.051 172.188C220.422 170.679 223.052 169.925 225.94 169.925C228.441 169.925 230.596 170.421 232.407 171.412C234.217 172.404 235.618 173.74 236.61 175.421V170.378C236.61 170.378 237.588 170.378 239.002 170.378C241.261 170.378 244.632 170.378 246.892 170.378C248.305 170.378 249.284 170.378 249.284 170.378V206.654C249.284 206.654 248.305 206.654 246.892 206.654C244.632 206.654 241.261 206.654 239.002 206.654C237.588 206.654 236.61 206.654 236.61 206.654V201.61C235.618 203.291 234.196 204.628 232.342 205.619C230.531 206.611 228.397 207.106 225.94 207.106C223.052 207.106 220.422 206.352 218.051 204.843C215.724 203.334 213.87 201.179 212.49 198.377C211.154 195.532 210.486 192.234 210.486 188.483ZM236.61 188.483C236.61 186.155 235.963 184.323 234.67 182.987C233.42 181.651 231.868 180.982 230.014 180.982C228.117 180.982 226.544 181.651 225.294 182.987C224.043 184.28 223.418 186.112 223.418 188.483C223.418 190.811 224.043 192.665 225.294 194.044C226.544 195.381 228.117 196.049 230.014 196.049C231.868 196.049 233.42 195.381 234.67 194.044C235.963 192.708 236.61 190.854 236.61 188.483Z" fill="black" fill-opacity="0.95"/>
<path d="M280.237 170.054C284.419 170.054 287.738 171.455 290.195 174.257C292.652 177.016 293.881 180.767 293.881 185.509V206.654C293.881 206.654 292.902 206.654 291.489 206.654C289.229 206.654 285.859 206.654 283.599 206.654C282.186 206.654 281.207 206.654 281.207 206.654V187.19C281.207 185.121 280.668 183.504 279.59 182.34C278.513 181.133 277.069 180.53 275.258 180.53C273.361 180.53 271.874 181.133 270.796 182.34C269.718 183.504 269.18 185.121 269.18 187.19V206.654C269.18 206.654 268.201 206.654 266.788 206.654C264.528 206.654 261.157 206.654 258.898 206.654C257.484 206.654 256.506 206.654 256.506 206.654V170.378C256.506 170.378 257.484 170.378 258.898 170.378C261.157 170.378 264.528 170.378 266.788 170.378C268.201 170.378 269.18 170.378 269.18 170.378V175.551C270.3 173.913 271.809 172.598 273.706 171.606C275.603 170.572 277.78 170.054 280.237 170.054Z" fill="black" fill-opacity="0.95"/>
<path d="M133.856 229.322C140.427 229.322 150.23 229.322 156.801 229.322C160.911 229.322 163.757 229.322 163.757 229.322V239.409C163.757 239.409 162.819 239.409 161.463 239.409C159.296 239.409 156.063 239.409 153.895 239.409C152.539 239.409 151.601 239.409 151.601 239.409V274.909C151.601 274.909 150.622 274.909 149.209 274.909C146.949 274.909 143.578 274.909 141.319 274.909C139.905 274.909 138.927 274.909 138.927 274.909V239.409C138.927 239.409 137.998 239.409 136.657 239.409C134.513 239.409 131.314 239.409 129.17 239.409C127.828 239.409 126.9 239.409 126.9 239.409V229.322C126.9 229.322 129.746 229.322 133.856 229.322Z" fill="black" fill-opacity="0.95"/>
<path d="M203.106 256.351C203.106 257.342 203.041 258.334 202.912 259.325C202.912 259.325 201.059 259.325 198.384 259.325C194.107 259.325 187.727 259.325 183.45 259.325C180.774 259.325 178.922 259.325 178.922 259.325C179.051 261.308 179.59 262.795 180.539 263.787C181.53 264.735 182.78 265.21 184.289 265.21C186.401 265.21 187.91 264.261 188.815 262.364C188.815 262.364 189.859 262.364 191.366 262.364C193.775 262.364 197.37 262.364 199.779 262.364C201.286 262.364 202.33 262.364 202.33 262.364C201.77 264.865 200.67 267.106 199.032 269.089C197.437 271.029 195.411 272.56 192.954 273.68C190.497 274.801 187.781 275.362 184.806 275.362C181.228 275.362 178.038 274.607 175.236 273.098C172.477 271.59 170.3 269.434 168.705 266.632C167.153 263.83 166.377 260.532 166.377 256.739C166.377 252.945 167.153 249.669 168.705 246.91C170.257 244.108 172.413 241.952 175.171 240.444C177.974 238.935 181.185 238.18 184.806 238.18C188.384 238.18 191.553 238.913 194.312 240.379C197.071 241.845 199.226 243.957 200.778 246.716C202.33 249.432 203.106 252.643 203.106 256.351ZM181.098 253.182C183.092 253.182 186.068 253.182 188.062 253.182C189.309 253.182 190.173 253.182 190.173 253.182C190.173 251.63 189.656 250.423 188.621 249.561C187.587 248.656 186.294 248.203 184.742 248.203C183.19 248.203 181.918 248.634 180.926 249.496C179.935 250.316 179.288 251.544 178.987 253.182C178.987 253.182 179.85 253.182 181.098 253.182Z" fill="black" fill-opacity="0.95"/>
<path d="M206.223 256.739C206.223 252.988 206.999 249.712 208.551 246.91C210.103 244.108 212.259 241.952 215.018 240.444C217.82 238.935 221.01 238.18 224.588 238.18C229.2 238.18 233.08 239.452 236.227 241.996C239.374 244.496 241.4 248.009 242.305 252.536C242.305 252.536 241.267 252.536 239.767 252.536C237.369 252.536 233.792 252.536 231.394 252.536C229.894 252.536 228.855 252.536 228.855 252.536C228.079 250.165 226.571 248.979 224.329 248.979C222.734 248.979 221.462 249.647 220.514 250.984C219.609 252.277 219.156 254.195 219.156 256.739C219.156 259.282 219.609 261.222 220.514 262.558C221.462 263.895 222.734 264.563 224.329 264.563C226.614 264.563 228.123 263.377 228.855 261.006C228.855 261.006 229.894 261.006 231.394 261.006C233.792 261.006 237.369 261.006 239.767 261.006C241.267 261.006 242.305 261.006 242.305 261.006C241.4 265.49 239.374 269.003 236.227 271.547C233.08 274.09 229.2 275.362 224.588 275.362C221.01 275.362 217.82 274.607 215.018 273.098C212.259 271.59 210.103 269.434 208.551 266.632C206.999 263.83 206.223 260.532 206.223 256.739Z" fill="black" fill-opacity="0.95"/>
<path d="M271.431 238.31C275.569 238.31 278.846 239.711 281.26 242.513C283.717 245.272 284.946 249.022 284.946 253.764V274.909C284.946 274.909 283.967 274.909 282.554 274.909C280.294 274.909 276.923 274.909 274.664 274.909C273.25 274.909 272.272 274.909 272.272 274.909V255.445C272.272 253.376 271.733 251.76 270.655 250.596C269.577 249.389 268.133 248.785 266.323 248.785C264.426 248.785 262.939 249.389 261.861 250.596C260.783 251.76 260.244 253.376 260.244 255.445V274.909C260.244 274.909 259.266 274.909 257.852 274.909C255.593 274.909 252.222 274.909 249.962 274.909C248.549 274.909 247.57 274.909 247.57 274.909V227.058C247.57 227.058 248.549 227.058 249.962 227.058C252.222 227.058 255.593 227.058 257.852 227.058C259.266 227.058 260.244 227.058 260.244 227.058V243.806C261.365 242.168 262.874 240.853 264.771 239.862C266.711 238.827 268.931 238.31 271.431 238.31Z" fill="black" fill-opacity="0.95"/>
<path d="M234.88 188.692C234.88 190.676 232.87 192.284 230.39 192.284C227.91 192.284 225.9 190.676 225.9 188.692C225.9 186.708 227.91 185.099 230.39 185.099C232.87 185.099 234.88 186.708 234.88 188.692Z" fill="white"/>
<path d="M105.219 221.849C105.578 222.209 105.937 222.508 106.296 222.748C105.698 224.783 105.398 226.939 105.398 229.214V239.273C105.398 245.26 107.494 250.349 111.685 254.54C113.481 256.336 115.397 257.713 117.433 258.671V274.837C117.433 280.824 119.528 285.914 123.719 290.105C127.91 294.296 133 296.391 138.987 296.391C138.987 296.391 139.958 296.391 141.36 296.391C143.602 296.391 146.946 296.391 149.187 296.391C150.59 296.391 151.56 296.391 151.56 296.391C156.59 296.391 161.02 294.895 164.852 291.901C164.852 291.901 164.912 291.961 165.032 292.081C171.019 295.314 177.605 296.93 184.79 296.93C190.897 296.93 196.585 295.673 201.854 293.158C202.812 292.799 203.71 292.38 204.548 291.901C204.668 291.901 204.788 291.961 204.907 292.081C210.895 295.314 217.481 296.93 224.666 296.93C229.575 296.93 234.245 296.152 238.676 294.595C241.31 295.793 244.304 296.391 247.657 296.391C247.657 296.391 248.628 296.391 250.03 296.391C252.271 296.391 255.615 296.391 257.857 296.391C259.259 296.391 260.23 296.391 260.23 296.391C262.386 296.391 264.421 296.092 266.337 295.493C268.253 296.092 270.229 296.391 272.265 296.391C272.265 296.391 273.249 296.391 274.672 296.391C276.945 296.391 280.337 296.391 282.611 296.391C284.033 296.391 285.018 296.391 285.018 296.391C290.885 296.391 295.974 294.296 300.285 290.105C304.476 285.914 306.572 280.824 306.572 274.837V253.642C306.572 243.464 303.578 235.022 297.591 228.316C297.471 228.196 297.352 228.076 297.232 227.956C301.782 227.238 305.734 225.202 309.087 221.849C313.278 217.658 315.373 212.569 315.373 206.582V185.387C315.373 175.208 312.38 166.706 306.392 159.881C299.567 152.217 290.885 148.385 280.348 148.385C279.768 148.385 279.195 148.398 278.628 148.423C276.736 148.508 274.914 148.735 273.163 149.104C272.435 148.971 271.708 148.876 270.981 148.816C270.535 148.78 270.089 148.757 269.643 148.749C269.499 148.746 269.355 148.744 269.211 148.744C269.211 148.744 268.226 148.744 266.804 148.744C264.531 148.744 261.139 148.744 258.865 148.744C257.443 148.744 256.458 148.744 256.458 148.744C256.171 148.744 255.885 148.751 255.598 148.765C254.687 148.809 253.776 148.921 252.866 149.104C251.668 148.864 250.471 148.744 249.273 148.744C249.273 148.744 248.303 148.744 246.9 148.744C244.659 148.744 241.315 148.744 239.073 148.744C237.671 148.744 236.7 148.744 236.7 148.744C236.534 148.744 236.369 148.745 236.206 148.748C235.776 148.754 235.354 148.768 234.941 148.79C234.375 148.82 233.824 148.864 233.287 148.924C231.834 148.706 230.358 148.554 228.86 148.468C228.348 148.439 227.833 148.417 227.316 148.404C226.853 148.391 226.389 148.385 225.923 148.385C225.79 148.385 225.652 148.385 225.51 148.385C225.282 148.385 225.043 148.385 224.792 148.385C224.634 148.385 224.473 148.385 224.306 148.385C223.348 146.589 222.091 144.972 220.534 143.535C216.343 139.344 211.314 137.249 205.446 137.249C205.446 137.249 204.461 137.249 203.039 137.249C200.766 137.249 197.374 137.249 195.1 137.249C193.678 137.249 192.693 137.249 192.693 137.249C186.706 137.249 181.617 139.344 177.426 143.535C175.869 144.972 174.612 146.589 173.654 148.385C173.354 148.385 173.055 148.385 172.755 148.385C172.276 148.385 171.798 148.385 171.319 148.385C171.019 148.385 170.72 148.385 170.42 148.385C170.121 148.385 169.821 148.385 169.522 148.385C169.043 148.385 168.564 148.385 168.086 148.385C167.786 148.385 167.487 148.385 167.187 148.385C166.469 147.427 165.631 146.469 164.673 145.511C160.481 141.44 155.452 139.404 149.585 139.404C149.585 139.404 147.338 139.404 144.093 139.404C138.905 139.404 131.166 139.404 125.978 139.404C122.733 139.404 120.486 139.404 120.486 139.404C114.499 139.404 109.41 141.5 105.219 145.691C101.027 149.882 98.9319 154.971 98.9319 160.958V206.582C98.9319 212.569 101.027 217.658 105.219 221.849Z" fill="black"/>
<path d="M205.446 217.359C205.446 217.359 204.461 217.359 203.039 217.359C200.766 217.359 197.374 217.359 195.1 217.359C193.678 217.359 192.693 217.359 192.693 217.359C189.999 217.359 187.484 216.461 185.508 214.665C184.91 214.904 184.311 215.203 183.712 215.563C180 217.119 175.869 217.898 171.319 217.898C166.648 217.898 162.338 217.06 158.386 215.383L158.206 215.204C157.727 215.084 157.248 214.904 156.769 214.665C154.794 216.461 152.458 217.359 149.585 217.359C149.585 217.359 147.338 217.359 144.093 217.359C138.905 217.359 131.166 217.359 125.978 217.359C122.733 217.359 120.486 217.359 120.486 217.359C115.098 217.359 109.709 212.15 109.709 206.582V160.958C109.709 155.57 115.098 150.181 120.486 150.181C120.486 150.181 122.733 150.181 125.978 150.181C131.166 150.181 138.905 150.181 144.093 150.181C147.338 150.181 149.585 150.181 149.585 150.181C154.973 150.181 160.182 155.211 160.362 160.599C163.147 159.742 166.124 159.269 169.292 159.178C169.666 159.168 170.042 159.162 170.42 159.162C174.731 159.162 178.563 159.821 181.916 161.138V158.803C181.916 153.235 187.125 148.026 192.693 148.026C192.693 148.026 193.678 148.026 195.1 148.026C197.374 148.026 200.766 148.026 203.039 148.026C204.461 148.026 205.446 148.026 205.446 148.026C210.835 148.026 216.223 153.235 216.223 158.803V160.958C219.217 159.761 222.45 159.162 225.923 159.162C228.557 159.162 231.012 159.462 233.287 160.06C234.365 159.701 235.443 159.521 236.7 159.521C236.7 159.521 237.671 159.521 239.073 159.521C241.315 159.521 244.659 159.521 246.9 159.521C248.303 159.521 249.273 159.521 249.273 159.521C250.71 159.521 251.608 159.701 252.866 160.24C254.123 159.701 255.201 159.521 256.458 159.521C256.458 159.521 257.443 159.521 258.865 159.521C261.139 159.521 264.531 159.521 266.804 159.521C268.226 159.521 269.211 159.521 269.211 159.521C270.648 159.521 271.726 159.701 272.983 160.24C275.03 159.594 277.222 159.238 279.56 159.173C279.821 159.166 280.083 159.162 280.348 159.162C287.652 159.162 293.639 161.797 298.309 167.065C302.501 171.855 304.596 177.962 304.596 185.387V206.582C304.596 212.15 299.387 217.359 293.819 217.359C293.819 217.359 292.848 217.359 291.446 217.359C289.204 217.359 285.86 217.359 283.619 217.359C282.217 217.359 281.246 217.359 281.246 217.359C278.911 217.359 277.114 216.82 275.139 215.563C273.342 216.82 271.546 217.359 269.211 217.359C269.211 217.359 268.892 217.359 268.431 217.359C267.695 217.359 266.596 217.359 265.86 217.359C265.399 217.359 265.08 217.359 265.08 217.359C268.672 219.155 271.007 222.927 271.007 227.058V227.418C271.041 227.418 271.074 227.418 271.107 227.418C271.16 227.418 271.214 227.418 271.267 227.418C271.3 227.418 271.333 227.418 271.367 227.418C278.791 227.418 284.778 230.052 289.329 235.321C293.639 240.111 295.795 246.218 295.795 253.642V274.837C295.795 280.405 290.406 285.614 285.018 285.614C285.018 285.614 284.033 285.614 282.611 285.614C280.337 285.614 276.945 285.614 274.672 285.614C273.249 285.614 272.265 285.614 272.265 285.614C270.109 285.614 268.133 285.075 266.337 283.818C264.361 285.075 262.565 285.614 260.23 285.614C260.23 285.614 259.259 285.614 257.857 285.614C255.615 285.614 252.271 285.614 250.03 285.614C248.628 285.614 247.657 285.614 247.657 285.614C244.424 285.614 241.729 284.357 239.754 282.202C235.323 284.836 230.294 286.153 224.666 286.153C219.277 286.153 214.367 284.956 209.937 282.561C208.021 281.483 206.225 280.226 204.548 278.789C202.512 280.585 200.118 282.142 197.363 283.459C193.531 285.255 189.34 286.153 184.79 286.153C179.401 286.153 174.492 284.956 170.061 282.561C167.068 280.884 164.493 278.729 162.338 276.095C161.619 281.303 156.769 285.614 151.56 285.614C151.56 285.614 150.59 285.614 149.187 285.614C146.946 285.614 143.602 285.614 141.36 285.614C139.958 285.614 138.987 285.614 138.987 285.614C133.419 285.614 128.21 280.405 128.21 274.837V250.05C128.21 250.05 128.113 250.05 127.973 250.05C127.748 250.05 127.414 250.05 127.19 250.05C127.05 250.05 126.953 250.05 126.953 250.05C121.384 250.05 116.175 244.841 116.175 239.273V229.214C116.175 223.825 121.384 218.437 126.953 218.437C126.953 218.437 129.796 218.437 133.902 218.437C140.467 218.437 150.26 218.437 156.825 218.437C160.931 218.437 163.775 218.437 163.775 218.437C169.163 218.437 174.372 223.466 174.552 229.034C177.785 227.956 181.198 227.418 184.79 227.418C190.179 227.418 195.028 228.555 199.339 230.83C201.375 231.908 203.171 233.165 204.728 234.602C206.284 233.165 208.021 231.908 209.937 230.83C214.367 228.555 219.277 227.418 224.666 227.418C229.096 227.418 233.168 228.196 236.88 229.753V227.058C236.88 222.927 239.035 219.155 242.807 217.359C242.807 217.359 242.336 217.359 241.654 217.359C240.566 217.359 238.941 217.359 237.853 217.359C237.172 217.359 236.7 217.359 236.7 217.359C235.443 217.359 234.365 217.179 233.287 216.82C231.24 217.466 229.048 217.822 226.71 217.887C226.45 217.894 226.187 217.898 225.923 217.898C221.253 217.898 216.942 216.7 212.99 214.305C210.835 216.281 208.32 217.359 205.446 217.359ZM225.923 188.44C225.923 188.919 226.222 189.518 226.821 190.236V190.416C226.821 190.416 226.826 190.416 226.835 190.416C226.85 190.416 226.876 190.416 226.915 190.416C226.939 190.416 226.967 190.416 227.001 190.416C227.001 190.416 226.987 190.416 226.967 190.416C226.935 190.416 226.887 190.416 226.855 190.416C226.835 190.416 226.821 190.416 226.821 190.416C227.779 191.254 228.857 191.673 230.054 191.673C231.252 191.673 232.269 191.194 233.108 190.236C233.826 189.518 234.185 188.919 234.185 188.44C234.185 187.961 233.886 187.422 233.287 186.824C232.329 185.746 231.252 185.207 230.054 185.207C228.737 185.207 227.659 185.686 226.821 186.644C226.222 187.243 225.923 187.841 225.923 188.44Z" fill="white"/>
<path d="M146.537 171.218C143.597 171.218 139.212 171.218 136.272 171.218C134.433 171.218 133.16 171.218 133.16 171.218V178.655C133.16 178.655 134.283 178.655 135.906 178.655C138.5 178.655 142.369 178.655 144.963 178.655C146.586 178.655 147.709 178.655 147.709 178.655V188.289C147.709 188.289 146.586 188.289 144.963 188.289C142.369 188.289 138.5 188.289 135.906 188.289C134.283 188.289 133.16 188.289 133.16 188.289V196.502C133.16 196.502 134.433 196.502 136.272 196.502C139.212 196.502 143.597 196.502 146.537 196.502C148.376 196.502 149.649 196.502 149.649 196.502V206.654C149.649 206.654 147.397 206.654 144.145 206.654C138.946 206.654 131.189 206.654 125.99 206.654C122.738 206.654 120.486 206.654 120.486 206.654V161.066C120.486 161.066 122.738 161.066 125.99 161.066C131.189 161.066 138.946 161.066 144.145 161.066C147.397 161.066 149.649 161.066 149.649 161.066V171.218C149.649 171.218 148.376 171.218 146.537 171.218Z" fill="black" fill-opacity="0.95"/>
<path d="M171.366 207.106C168.09 207.106 165.159 206.567 162.572 205.49C160.029 204.369 158.003 202.86 156.494 200.963C155.028 199.023 154.209 196.846 154.037 194.432C154.037 194.432 154.985 194.432 156.355 194.432C158.546 194.432 161.813 194.432 164.004 194.432C165.374 194.432 166.322 194.432 166.322 194.432C166.495 195.596 167.034 196.502 167.939 197.148C168.844 197.795 169.965 198.118 171.302 198.118C172.336 198.118 173.155 197.903 173.759 197.471C174.362 197.04 174.664 196.48 174.664 195.79C174.664 194.885 174.168 194.217 173.177 193.786C172.185 193.355 170.547 192.88 168.262 192.363C165.676 191.846 163.52 191.264 161.796 190.617C160.072 189.971 158.563 188.914 157.27 187.449C156.02 185.983 155.394 184 155.394 181.5C155.394 179.344 155.976 177.404 157.14 175.68C158.304 173.913 160.007 172.512 162.249 171.477C164.533 170.442 167.271 169.925 170.461 169.925C175.203 169.925 178.932 171.089 181.648 173.417C184.363 175.745 185.937 178.805 186.368 182.599C186.368 182.599 185.484 182.599 184.208 182.599C182.167 182.599 179.123 182.599 177.083 182.599C175.806 182.599 174.923 182.599 174.923 182.599C174.707 181.435 174.19 180.551 173.371 179.948C172.595 179.301 171.539 178.978 170.202 178.978C169.168 178.978 168.37 179.172 167.81 179.56C167.292 179.948 167.034 180.487 167.034 181.176C167.034 182.039 167.53 182.707 168.521 183.181C169.513 183.612 171.108 184.065 173.306 184.539C175.936 185.099 178.113 185.724 179.837 186.414C181.605 187.104 183.135 188.225 184.428 189.777C185.765 191.285 186.433 193.355 186.433 195.984C186.433 198.097 185.808 199.993 184.557 201.675C183.35 203.356 181.605 204.692 179.32 205.684C177.078 206.632 174.427 207.106 171.366 207.106Z" fill="black" fill-opacity="0.95"/>
<path d="M195.056 158.803C197.315 158.803 200.686 158.803 202.946 158.803C204.359 158.803 205.338 158.803 205.338 158.803V206.654C205.338 206.654 204.359 206.654 202.946 206.654C200.686 206.654 197.315 206.654 195.056 206.654C193.642 206.654 192.664 206.654 192.664 206.654V158.803C192.664 158.803 193.642 158.803 195.056 158.803Z" fill="black" fill-opacity="0.95"/>
<path d="M210.486 188.483C210.486 184.733 211.154 181.457 212.49 178.655C213.87 175.852 215.724 173.697 218.051 172.188C220.422 170.679 223.052 169.925 225.94 169.925C228.441 169.925 230.596 170.421 232.407 171.412C234.217 172.404 235.618 173.74 236.61 175.421V170.378C236.61 170.378 237.588 170.378 239.002 170.378C241.261 170.378 244.632 170.378 246.892 170.378C248.305 170.378 249.284 170.378 249.284 170.378V206.654C249.284 206.654 248.305 206.654 246.892 206.654C244.632 206.654 241.261 206.654 239.002 206.654C237.588 206.654 236.61 206.654 236.61 206.654V201.61C235.618 203.291 234.196 204.628 232.342 205.619C230.531 206.611 228.397 207.106 225.94 207.106C223.052 207.106 220.422 206.352 218.051 204.843C215.724 203.334 213.87 201.179 212.49 198.377C211.154 195.532 210.486 192.234 210.486 188.483ZM236.61 188.483C236.61 186.155 235.963 184.323 234.67 182.987C233.42 181.651 231.868 180.982 230.014 180.982C228.117 180.982 226.544 181.651 225.294 182.987C224.043 184.28 223.418 186.112 223.418 188.483C223.418 190.811 224.043 192.665 225.294 194.044C226.544 195.381 228.117 196.049 230.014 196.049C231.868 196.049 233.42 195.381 234.67 194.044C235.963 192.708 236.61 190.854 236.61 188.483Z" fill="black" fill-opacity="0.95"/>
<path d="M280.237 170.054C284.419 170.054 287.738 171.455 290.195 174.257C292.652 177.016 293.881 180.767 293.881 185.509V206.654C293.881 206.654 292.902 206.654 291.489 206.654C289.229 206.654 285.859 206.654 283.599 206.654C282.186 206.654 281.207 206.654 281.207 206.654V187.19C281.207 185.121 280.668 183.504 279.59 182.34C278.513 181.133 277.069 180.53 275.258 180.53C273.361 180.53 271.874 181.133 270.796 182.34C269.718 183.504 269.18 185.121 269.18 187.19V206.654C269.18 206.654 268.201 206.654 266.788 206.654C264.528 206.654 261.157 206.654 258.898 206.654C257.484 206.654 256.506 206.654 256.506 206.654V170.378C256.506 170.378 257.484 170.378 258.898 170.378C261.157 170.378 264.528 170.378 266.788 170.378C268.201 170.378 269.18 170.378 269.18 170.378V175.551C270.3 173.913 271.809 172.598 273.706 171.606C275.603 170.572 277.78 170.054 280.237 170.054Z" fill="black" fill-opacity="0.95"/>
<path d="M133.856 229.322C140.427 229.322 150.23 229.322 156.801 229.322C160.911 229.322 163.757 229.322 163.757 229.322V239.409C163.757 239.409 162.819 239.409 161.463 239.409C159.296 239.409 156.063 239.409 153.895 239.409C152.539 239.409 151.601 239.409 151.601 239.409V274.909C151.601 274.909 150.622 274.909 149.209 274.909C146.949 274.909 143.578 274.909 141.319 274.909C139.905 274.909 138.927 274.909 138.927 274.909V239.409C138.927 239.409 137.998 239.409 136.657 239.409C134.513 239.409 131.314 239.409 129.17 239.409C127.828 239.409 126.9 239.409 126.9 239.409V229.322C126.9 229.322 129.746 229.322 133.856 229.322Z" fill="black" fill-opacity="0.95"/>
<path d="M203.106 256.351C203.106 257.342 203.041 258.334 202.912 259.325C202.912 259.325 201.059 259.325 198.384 259.325C194.107 259.325 187.727 259.325 183.45 259.325C180.774 259.325 178.922 259.325 178.922 259.325C179.051 261.308 179.59 262.795 180.539 263.787C181.53 264.735 182.78 265.21 184.289 265.21C186.401 265.21 187.91 264.261 188.815 262.364C188.815 262.364 189.859 262.364 191.366 262.364C193.775 262.364 197.37 262.364 199.779 262.364C201.286 262.364 202.33 262.364 202.33 262.364C201.77 264.865 200.67 267.106 199.032 269.089C197.437 271.029 195.411 272.56 192.954 273.68C190.497 274.801 187.781 275.362 184.806 275.362C181.228 275.362 178.038 274.607 175.236 273.098C172.477 271.59 170.3 269.434 168.705 266.632C167.153 263.83 166.377 260.532 166.377 256.739C166.377 252.945 167.153 249.669 168.705 246.91C170.257 244.108 172.413 241.952 175.171 240.444C177.974 238.935 181.185 238.18 184.806 238.18C188.384 238.18 191.553 238.913 194.312 240.379C197.071 241.845 199.226 243.957 200.778 246.716C202.33 249.432 203.106 252.643 203.106 256.351ZM181.098 253.182C183.092 253.182 186.068 253.182 188.062 253.182C189.309 253.182 190.173 253.182 190.173 253.182C190.173 251.63 189.656 250.423 188.621 249.561C187.587 248.656 186.294 248.203 184.742 248.203C183.19 248.203 181.918 248.634 180.926 249.496C179.935 250.316 179.288 251.544 178.987 253.182C178.987 253.182 179.85 253.182 181.098 253.182Z" fill="black" fill-opacity="0.95"/>
<path d="M206.223 256.739C206.223 252.988 206.999 249.712 208.551 246.91C210.103 244.108 212.259 241.952 215.018 240.444C217.82 238.935 221.01 238.18 224.588 238.18C229.2 238.18 233.08 239.452 236.227 241.996C239.374 244.496 241.4 248.009 242.305 252.536C242.305 252.536 241.267 252.536 239.767 252.536C237.369 252.536 233.792 252.536 231.394 252.536C229.894 252.536 228.855 252.536 228.855 252.536C228.079 250.165 226.571 248.979 224.329 248.979C222.734 248.979 221.462 249.647 220.514 250.984C219.609 252.277 219.156 254.195 219.156 256.739C219.156 259.282 219.609 261.222 220.514 262.558C221.462 263.895 222.734 264.563 224.329 264.563C226.614 264.563 228.123 263.377 228.855 261.006C228.855 261.006 229.894 261.006 231.394 261.006C233.792 261.006 237.369 261.006 239.767 261.006C241.267 261.006 242.305 261.006 242.305 261.006C241.4 265.49 239.374 269.003 236.227 271.547C233.08 274.09 229.2 275.362 224.588 275.362C221.01 275.362 217.82 274.607 215.018 273.098C212.259 271.59 210.103 269.434 208.551 266.632C206.999 263.83 206.223 260.532 206.223 256.739Z" fill="black" fill-opacity="0.95"/>
<path d="M271.431 238.31C275.569 238.31 278.846 239.711 281.26 242.513C283.717 245.272 284.946 249.022 284.946 253.764V274.909C284.946 274.909 283.967 274.909 282.554 274.909C280.294 274.909 276.923 274.909 274.664 274.909C273.25 274.909 272.272 274.909 272.272 274.909V255.445C272.272 253.376 271.733 251.76 270.655 250.596C269.577 249.389 268.133 248.785 266.323 248.785C264.426 248.785 262.939 249.389 261.861 250.596C260.783 251.76 260.244 253.376 260.244 255.445V274.909C260.244 274.909 259.266 274.909 257.852 274.909C255.593 274.909 252.222 274.909 249.962 274.909C248.549 274.909 247.57 274.909 247.57 274.909V227.058C247.57 227.058 248.549 227.058 249.962 227.058C252.222 227.058 255.593 227.058 257.852 227.058C259.266 227.058 260.244 227.058 260.244 227.058V243.806C261.365 242.168 262.874 240.853 264.771 239.862C266.711 238.827 268.931 238.31 271.431 238.31Z" fill="black" fill-opacity="0.95"/>
<path d="M234.88 188.692C234.88 190.676 232.87 192.284 230.39 192.284C227.91 192.284 225.9 190.676 225.9 188.692C225.9 186.708 227.91 185.099 230.39 185.099C232.87 185.099 234.88 186.708 234.88 188.692Z" fill="white"/>
<path d="M97.4978 217.92C97.8586 218.296 98.2193 218.609 98.58 218.859C97.9788 220.989 97.6782 223.244 97.6782 225.624V236.146C97.6782 242.41 99.7824 247.734 103.991 252.118C105.795 253.997 107.718 255.438 109.763 256.44V273.351C109.763 279.615 111.867 284.939 116.075 289.323C120.284 293.707 125.394 295.9 131.406 295.9H144.032C149.082 295.9 153.531 294.334 157.379 291.202C157.379 291.202 157.439 291.265 157.559 291.39C163.571 294.772 170.185 296.463 177.399 296.463C183.532 296.463 189.243 295.148 194.534 292.517C195.496 292.142 196.398 291.703 197.24 291.202C197.36 291.202 197.48 291.265 197.6 291.39C203.612 294.772 210.226 296.463 217.44 296.463C222.37 296.463 227.06 295.649 231.509 294.021C234.154 295.273 237.16 295.9 240.527 295.9H253.153C255.317 295.9 257.361 295.586 259.285 294.96C261.209 295.586 263.193 295.9 265.237 295.9H278.043C283.935 295.9 289.045 293.707 293.374 289.323C297.582 284.939 299.687 279.615 299.687 273.351V251.179C299.687 240.531 296.681 231.699 290.668 224.684C290.548 224.559 290.428 224.434 290.308 224.308C294.877 223.557 298.845 221.427 302.212 217.92C306.42 213.535 308.525 208.211 308.525 201.948V179.775C308.525 169.127 305.519 160.233 299.506 153.093C292.653 145.076 283.935 141.067 273.353 141.067C270.828 141.067 268.424 141.318 266.139 141.819C264.816 141.568 263.494 141.443 262.171 141.443H249.365C248.163 141.443 246.96 141.568 245.758 141.819C244.555 141.568 243.353 141.443 242.15 141.443H229.525C228.322 141.443 227.18 141.506 226.098 141.631C223.693 141.255 221.228 141.067 218.703 141.067C218.222 141.067 217.681 141.067 217.08 141.067C216.118 139.188 214.855 137.497 213.292 135.994C209.083 131.609 204.033 129.417 198.141 129.417H185.335C179.323 129.417 174.213 131.609 170.004 135.994C168.441 137.497 167.179 139.188 166.217 141.067C165.135 141.067 164.052 141.067 162.97 141.067C161.888 141.067 160.806 141.067 159.724 141.067C159.002 140.065 158.161 139.063 157.199 138.061C152.99 133.802 147.94 131.672 142.048 131.672H112.829C106.817 131.672 101.706 133.864 97.4978 138.249C93.2893 142.633 91.1851 147.957 91.1851 154.22V201.948C91.1851 208.211 93.2893 213.535 97.4978 217.92Z" fill="black"/>
<path d="M198.141 213.222H185.335C182.63 213.222 180.105 212.283 178.121 210.404C177.52 210.654 176.918 210.967 176.317 211.343C172.59 212.972 168.441 213.786 163.872 213.786C159.183 213.786 154.854 212.909 150.886 211.155L150.705 210.967C150.224 210.842 149.743 210.654 149.263 210.404C147.279 212.283 144.934 213.222 142.048 213.222H112.829C107.418 213.222 102.007 207.773 102.007 201.948V154.22C102.007 148.583 107.418 142.946 112.829 142.946H142.048C147.459 142.946 152.689 148.208 152.87 153.845C155.996 152.843 159.363 152.341 162.97 152.341C167.299 152.341 171.147 153.03 174.514 154.408V151.966C174.514 146.141 179.744 140.691 185.335 140.691H198.141C203.552 140.691 208.963 146.141 208.963 151.966V154.22C211.969 152.968 215.216 152.341 218.703 152.341C221.348 152.341 223.813 152.655 226.098 153.281C227.18 152.905 228.262 152.717 229.525 152.717H242.15C243.593 152.717 244.495 152.905 245.758 153.469C247.02 152.905 248.102 152.717 249.365 152.717H262.171C263.614 152.717 264.696 152.905 265.959 153.469C268.243 152.717 270.708 152.341 273.353 152.341C280.688 152.341 286.7 155.097 291.39 160.609C295.598 165.62 297.703 172.009 297.703 179.775V201.948C297.703 207.773 292.472 213.222 286.881 213.222H274.255C271.911 213.222 270.107 212.658 268.123 211.343C266.319 212.658 264.516 213.222 262.171 213.222H258.022C261.63 215.101 263.975 219.047 263.975 223.369V223.745C264.095 223.745 264.215 223.745 264.335 223.745C271.79 223.745 277.802 226.501 282.372 232.012C286.7 237.023 288.865 243.412 288.865 251.179V273.351C288.865 279.176 283.454 284.625 278.043 284.625H265.237C263.073 284.625 261.089 284.062 259.285 282.746C257.301 284.062 255.497 284.625 253.153 284.625H240.527C237.281 284.625 234.575 283.31 232.591 281.055C228.142 283.811 223.092 285.189 217.44 285.189C212.029 285.189 207.099 283.936 202.65 281.431C200.727 280.304 198.923 278.988 197.24 277.485C195.195 279.364 192.791 280.993 190.025 282.371C186.177 284.25 181.969 285.189 177.399 285.189C171.988 285.189 167.059 283.936 162.61 281.431C159.603 279.677 157.018 277.422 154.854 274.667C154.132 280.116 149.263 284.625 144.032 284.625H131.406C125.815 284.625 120.585 279.176 120.585 273.351V247.421H119.322C113.731 247.421 108.5 241.971 108.5 236.146V225.624C108.5 219.987 113.731 214.35 119.322 214.35H156.297C161.708 214.35 166.938 219.611 167.119 225.436C170.365 224.308 173.792 223.745 177.399 223.745C182.81 223.745 187.68 224.935 192.009 227.315C194.053 228.442 195.857 229.758 197.42 231.261C198.983 229.758 200.727 228.442 202.65 227.315C207.099 224.935 212.029 223.745 217.44 223.745C221.889 223.745 225.978 224.559 229.705 226.187V223.369C229.705 219.047 231.87 215.101 235.657 213.222H229.525C228.262 213.222 227.18 213.034 226.098 212.658C223.813 213.41 221.348 213.786 218.703 213.786C214.013 213.786 209.685 212.533 205.717 210.028C203.552 212.095 201.027 213.222 198.141 213.222ZM218.703 182.97C218.703 183.471 219.004 184.097 219.605 184.849V185.037C219.605 185.037 219.665 185.037 219.785 185.037H219.605C220.567 185.914 221.649 186.352 222.851 186.352C224.054 186.352 225.076 185.851 225.918 184.849C226.639 184.097 227 183.471 227 182.97C227 182.469 226.699 181.905 226.098 181.279C225.136 180.151 224.054 179.587 222.851 179.587C221.529 179.587 220.446 180.089 219.605 181.091C219.004 181.717 218.703 182.343 218.703 182.97Z" fill="black"/>
<path d="M125.555 164.954V172.733H140.165V182.812H125.555V191.403H142.113V202.023H112.829V154.333H142.113V164.954H125.555Z" fill="black" fill-opacity="0.95"/>
<path d="M163.92 202.497C160.63 202.497 157.687 201.933 155.089 200.806C152.535 199.633 150.501 198.055 148.986 196.07C147.514 194.041 146.691 191.764 146.518 189.238H158.855C159.028 190.456 159.57 191.403 160.479 192.079C161.388 192.756 162.513 193.094 163.855 193.094C164.894 193.094 165.716 192.868 166.322 192.418C166.928 191.967 167.231 191.38 167.231 190.659C167.231 189.712 166.734 189.013 165.738 188.562C164.742 188.111 163.097 187.615 160.803 187.074C158.206 186.532 156.042 185.924 154.31 185.247C152.579 184.571 151.064 183.466 149.765 181.932C148.51 180.399 147.882 178.325 147.882 175.709C147.882 173.454 148.466 171.425 149.635 169.621C150.804 167.772 152.514 166.306 154.765 165.224C157.059 164.142 159.808 163.601 163.011 163.601C167.773 163.601 171.517 164.818 174.244 167.253C176.971 169.689 178.551 172.891 178.984 176.859H167.491C167.275 175.641 166.755 174.717 165.933 174.086C165.154 173.409 164.093 173.071 162.751 173.071C161.712 173.071 160.911 173.274 160.349 173.68C159.829 174.086 159.57 174.649 159.57 175.371C159.57 176.273 160.067 176.972 161.063 177.468C162.059 177.919 163.66 178.392 165.868 178.888C168.508 179.475 170.694 180.129 172.426 180.85C174.201 181.572 175.737 182.744 177.036 184.368C178.378 185.946 179.049 188.111 179.049 190.862C179.049 193.071 178.421 195.056 177.166 196.814C175.954 198.573 174.201 199.971 171.906 201.008C169.656 202.001 166.993 202.497 163.92 202.497Z" fill="black" fill-opacity="0.95"/>
<path d="M198.032 151.966V202.023H185.306V151.966H198.032Z" fill="black" fill-opacity="0.95"/>
<path d="M203.202 183.015C203.202 179.091 203.873 175.664 205.215 172.733C206.6 169.801 208.461 167.547 210.799 165.968C213.18 164.39 215.82 163.601 218.72 163.601C221.231 163.601 223.395 164.119 225.214 165.156C227.032 166.194 228.439 167.592 229.434 169.35V164.074H242.161V202.023H229.434V196.747C228.439 198.506 227.01 199.904 225.149 200.941C223.331 201.978 221.188 202.497 218.72 202.497C215.82 202.497 213.18 201.707 210.799 200.129C208.461 198.551 206.6 196.296 205.215 193.365C203.873 190.388 203.202 186.938 203.202 183.015ZM229.434 183.015C229.434 180.58 228.785 178.663 227.486 177.265C226.231 175.867 224.672 175.168 222.811 175.168C220.906 175.168 219.326 175.867 218.071 177.265C216.816 178.618 216.188 180.534 216.188 183.015C216.188 185.45 216.816 187.389 218.071 188.832C219.326 190.23 220.906 190.929 222.811 190.929C224.672 190.929 226.231 190.23 227.486 188.832C228.785 187.434 229.434 185.495 229.434 183.015Z" fill="black" fill-opacity="0.95"/>
<path d="M273.242 163.736C277.441 163.736 280.774 165.202 283.242 168.133C285.709 171.019 286.943 174.942 286.943 179.903V202.023H274.216V181.662C274.216 179.497 273.675 177.806 272.593 176.589C271.511 175.326 270.061 174.694 268.243 174.694C266.338 174.694 264.845 175.326 263.762 176.589C262.68 177.806 262.139 179.497 262.139 181.662V202.023H249.413V164.074H262.139V169.486C263.265 167.772 264.78 166.397 266.684 165.359C268.589 164.277 270.775 163.736 273.242 163.736Z" fill="black" fill-opacity="0.95"/>
<path d="M156.28 225.737V236.289H144.073V273.426H131.346V236.289H119.269V225.737H156.28Z" fill="black" fill-opacity="0.95"/>
<path d="M195.791 254.012C195.791 255.049 195.726 256.087 195.597 257.124H171.507C171.637 259.198 172.178 260.754 173.13 261.791C174.126 262.784 175.381 263.28 176.896 263.28C179.017 263.28 180.532 262.287 181.441 260.303H195.012C194.449 262.919 193.346 265.264 191.701 267.338C190.099 269.368 188.064 270.969 185.597 272.141C183.13 273.314 180.403 273.9 177.416 273.9C173.823 273.9 170.62 273.111 167.806 271.532C165.036 269.954 162.849 267.699 161.248 264.768C159.69 261.837 158.91 258.387 158.91 254.418C158.91 250.45 159.69 247.022 161.248 244.136C162.806 241.205 164.971 238.95 167.741 237.371C170.555 235.793 173.78 235.004 177.416 235.004C181.009 235.004 184.19 235.771 186.961 237.304C189.731 238.837 191.895 241.047 193.454 243.933C195.012 246.774 195.791 250.134 195.791 254.012ZM182.805 250.698C182.805 249.074 182.286 247.811 181.247 246.909C180.208 245.962 178.909 245.489 177.351 245.489C175.792 245.489 174.515 245.94 173.52 246.842C172.524 247.699 171.875 248.984 171.572 250.698H182.805Z" fill="black" fill-opacity="0.95"/>
<path d="M198.922 254.418C198.922 250.495 199.701 247.067 201.259 244.136C202.818 241.205 204.982 238.95 207.752 237.371C210.566 235.793 213.769 235.004 217.362 235.004C221.994 235.004 225.89 236.334 229.05 238.995C232.21 241.611 234.244 245.286 235.153 250.021H221.648C220.868 247.541 219.353 246.301 217.102 246.301C215.501 246.301 214.224 247 213.272 248.398C212.362 249.751 211.908 251.757 211.908 254.418C211.908 257.079 212.362 259.108 213.272 260.506C214.224 261.904 215.501 262.603 217.102 262.603C219.397 262.603 220.912 261.363 221.648 258.883H235.153C234.244 263.573 232.21 267.248 229.05 269.909C225.89 272.57 221.994 273.9 217.362 273.9C213.769 273.9 210.566 273.111 207.752 271.532C204.982 269.954 202.818 267.699 201.259 264.768C199.701 261.837 198.922 258.387 198.922 254.418Z" fill="black" fill-opacity="0.95"/>
<path d="M264.4 235.139C268.555 235.139 271.845 236.605 274.269 239.536C276.737 242.422 277.971 246.346 277.971 251.306V273.426H265.244V253.065C265.244 250.901 264.703 249.209 263.621 247.992C262.539 246.729 261.088 246.098 259.27 246.098C257.366 246.098 255.872 246.729 254.79 247.992C253.708 249.209 253.167 250.901 253.167 253.065V273.426H240.44V223.369H253.167V240.889C254.292 239.175 255.807 237.8 257.712 236.763C259.66 235.68 261.889 235.139 264.4 235.139Z" fill="black" fill-opacity="0.95"/>
<path d="M227.698 183.233C227.698 185.308 225.679 186.991 223.189 186.991C220.698 186.991 218.68 185.308 218.68 183.233C218.68 181.157 220.698 179.475 223.189 179.475C225.679 179.475 227.698 181.157 227.698 183.233Z" fill="black"/>
<path d="M90.2867 208.629C90.6459 208.989 91.0052 209.288 91.3644 209.528C90.7657 211.563 90.4663 213.719 90.4663 215.994V226.053C90.4663 232.04 92.5619 237.129 96.753 241.32C98.5492 243.116 100.465 244.493 102.501 245.451V261.617C102.501 267.605 104.596 272.694 108.787 276.885C112.979 281.076 118.068 283.172 124.055 283.172H136.629C141.658 283.172 146.088 281.675 149.92 278.681C149.92 278.681 149.98 278.741 150.1 278.861C156.087 282.094 162.673 283.71 169.858 283.71C175.965 283.71 181.653 282.453 186.922 279.938C187.88 279.579 188.778 279.16 189.616 278.681C189.736 278.681 189.856 278.741 189.975 278.861C195.963 282.094 202.549 283.71 209.734 283.71C214.643 283.71 219.313 282.932 223.744 281.375C226.378 282.573 229.372 283.172 232.725 283.172H245.298C247.454 283.172 249.489 282.872 251.405 282.273C253.321 282.872 255.297 283.172 257.333 283.172H270.086C275.953 283.172 281.043 281.076 285.353 276.885C289.545 272.694 291.64 267.605 291.64 261.617V240.422C291.64 230.244 288.646 221.802 282.659 215.096C282.539 214.976 282.42 214.856 282.3 214.737C286.85 214.018 290.802 211.982 294.155 208.629C298.346 204.438 300.441 199.349 300.441 193.362V172.167C300.441 161.988 297.448 153.486 291.46 146.661C284.635 138.997 275.953 135.165 265.416 135.165C262.901 135.165 260.506 135.405 258.231 135.884C256.914 135.644 255.596 135.524 254.279 135.524H241.526C240.329 135.524 239.131 135.644 237.934 135.884C236.736 135.644 235.539 135.524 234.341 135.524H221.768C220.571 135.524 219.433 135.584 218.355 135.704C215.96 135.345 213.506 135.165 210.991 135.165C210.512 135.165 209.973 135.165 209.374 135.165C208.416 133.369 207.159 131.752 205.602 130.315C201.411 126.124 196.382 124.029 190.514 124.029H177.761C171.774 124.029 166.685 126.124 162.494 130.315C160.937 131.752 159.68 133.369 158.722 135.165C157.644 135.165 156.566 135.165 155.489 135.165C154.411 135.165 153.333 135.165 152.255 135.165C151.537 134.207 150.699 133.249 149.741 132.291C145.55 128.22 140.52 126.184 134.653 126.184H105.554C99.567 126.184 94.4778 128.28 90.2867 132.471C86.0956 136.662 84 141.751 84 147.738V193.362C84 199.349 86.0956 204.438 90.2867 208.629Z" fill="black"/>
<path d="M190.514 204.139H177.761C175.067 204.139 172.552 203.241 170.577 201.445C169.978 201.684 169.379 201.984 168.78 202.343C165.068 203.899 160.937 204.678 156.387 204.678C151.717 204.678 147.406 203.84 143.454 202.163L143.274 201.984C142.795 201.864 142.316 201.684 141.837 201.445C139.862 203.241 137.527 204.139 134.653 204.139H105.554C100.166 204.139 94.7772 198.93 94.7772 193.362V147.738C94.7772 142.35 100.166 136.961 105.554 136.961H134.653C140.041 136.961 145.25 141.991 145.43 147.379C148.543 146.421 151.896 145.942 155.489 145.942C159.799 145.942 163.631 146.601 166.984 147.918V145.583C166.984 140.015 172.193 134.806 177.761 134.806H190.514C195.903 134.806 201.292 140.015 201.292 145.583V147.738C204.285 146.541 207.518 145.942 210.991 145.942C213.625 145.942 216.08 146.242 218.355 146.84C219.433 146.481 220.511 146.301 221.768 146.301H234.341C235.778 146.301 236.677 146.481 237.934 147.02C239.191 146.481 240.269 146.301 241.526 146.301H254.279C255.716 146.301 256.794 146.481 258.051 147.02C260.326 146.301 262.781 145.942 265.416 145.942C272.72 145.942 278.708 148.577 283.378 153.846C287.569 158.635 289.664 164.742 289.664 172.167V193.362C289.664 198.93 284.455 204.139 278.887 204.139H266.314C263.979 204.139 262.183 203.6 260.207 202.343C258.41 203.6 256.614 204.139 254.279 204.139H250.148C253.74 205.935 256.075 209.707 256.075 213.838V214.198C256.195 214.198 256.315 214.198 256.435 214.198C263.859 214.198 269.846 216.832 274.397 222.101C278.708 226.891 280.863 232.998 280.863 240.422V261.617C280.863 267.185 275.474 272.394 270.086 272.394H257.333C255.177 272.394 253.202 271.855 251.405 270.598C249.43 271.855 247.633 272.394 245.298 272.394H232.725C229.492 272.394 226.797 271.137 224.822 268.982C220.391 271.616 215.362 272.933 209.734 272.933C204.345 272.933 199.435 271.736 195.005 269.341C193.089 268.263 191.293 267.006 189.616 265.569C187.581 267.365 185.186 268.922 182.431 270.239C178.6 272.035 174.408 272.933 169.858 272.933C164.47 272.933 159.56 271.736 155.129 269.341C152.136 267.664 149.561 265.509 147.406 262.875C146.687 268.083 141.837 272.394 136.629 272.394H124.055C118.487 272.394 113.278 267.185 113.278 261.617V236.83H112.021C106.452 236.83 101.243 231.621 101.243 226.053V215.994C101.243 210.605 106.452 205.217 112.021 205.217H148.843C154.231 205.217 159.44 210.246 159.62 215.814C162.853 214.737 166.266 214.198 169.858 214.198C175.247 214.198 180.096 215.335 184.407 217.61C186.443 218.688 188.239 219.945 189.796 221.382C191.353 219.945 193.089 218.688 195.005 217.61C199.435 215.335 204.345 214.198 209.734 214.198C214.164 214.198 218.236 214.976 221.948 216.533V213.838C221.948 209.707 224.103 205.935 227.875 204.139H221.768C220.511 204.139 219.433 203.959 218.355 203.6C216.08 204.319 213.625 204.678 210.991 204.678C206.321 204.678 202.01 203.48 198.058 201.085C195.903 203.061 193.388 204.139 190.514 204.139ZM210.991 175.22C210.991 175.699 211.29 176.298 211.889 177.016V177.196C211.889 177.196 211.949 177.196 212.069 177.196H211.889C212.847 178.034 213.925 178.453 215.122 178.453C216.32 178.453 217.338 177.974 218.176 177.016C218.894 176.298 219.253 175.699 219.253 175.22C219.253 174.741 218.954 174.202 218.355 173.604C217.397 172.526 216.32 171.987 215.122 171.987C213.805 171.987 212.727 172.466 211.889 173.424C211.29 174.023 210.991 174.621 210.991 175.22Z" fill="white"/>
<path d="M118.228 157.998V165.435H132.777V175.069H118.228V183.282H134.717V193.434H105.554V147.846H134.717V157.998H118.228Z" fill="black" fill-opacity="0.95"/>
<path d="M156.434 193.886C153.158 193.886 150.227 193.347 147.64 192.27C145.097 191.149 143.071 189.64 141.562 187.743C140.096 185.803 139.277 183.626 139.105 181.212H151.391C151.563 182.376 152.102 183.282 153.007 183.928C153.912 184.575 155.033 184.898 156.37 184.898C157.404 184.898 158.223 184.683 158.827 184.252C159.43 183.82 159.732 183.26 159.732 182.57C159.732 181.665 159.236 180.997 158.245 180.566C157.253 180.135 155.615 179.66 153.331 179.143C150.744 178.626 148.589 178.044 146.864 177.397C145.14 176.751 143.631 175.694 142.338 174.229C141.088 172.763 140.463 170.78 140.463 168.28C140.463 166.124 141.045 164.184 142.208 162.46C143.372 160.693 145.075 159.292 147.317 158.257C149.602 157.222 152.339 156.705 155.529 156.705C160.271 156.705 164 157.869 166.716 160.197C169.432 162.525 171.005 165.585 171.436 169.379H159.991C159.775 168.215 159.258 167.331 158.439 166.728C157.663 166.081 156.607 165.758 155.27 165.758C154.236 165.758 153.438 165.952 152.878 166.34C152.361 166.728 152.102 167.267 152.102 167.956C152.102 168.819 152.598 169.487 153.589 169.961C154.581 170.392 156.176 170.845 158.374 171.319C161.004 171.879 163.181 172.504 164.905 173.194C166.673 173.884 168.203 175.005 169.496 176.557C170.833 178.065 171.501 180.135 171.501 182.764C171.501 184.877 170.876 186.773 169.626 188.455C168.419 190.136 166.673 191.472 164.388 192.464C162.146 193.412 159.495 193.886 156.434 193.886Z" fill="black" fill-opacity="0.95"/>
<path d="M190.406 145.583V193.434H177.732V145.583H190.406Z" fill="black" fill-opacity="0.95"/>
<path d="M195.554 175.263C195.554 171.513 196.222 168.237 197.558 165.435C198.938 162.633 200.792 160.477 203.119 158.968C205.49 157.459 208.12 156.705 211.008 156.705C213.509 156.705 215.664 157.201 217.475 158.192C219.285 159.184 220.686 160.52 221.678 162.201V157.158H234.352V193.434H221.678V188.39C220.686 190.071 219.264 191.408 217.41 192.399C215.599 193.391 213.466 193.886 211.008 193.886C208.12 193.886 205.49 193.132 203.119 191.623C200.792 190.114 198.938 187.959 197.558 185.157C196.222 182.312 195.554 179.014 195.554 175.263ZM221.678 175.263C221.678 172.935 221.031 171.103 219.738 169.767C218.488 168.431 216.936 167.762 215.082 167.762C213.185 167.762 211.612 168.431 210.362 169.767C209.112 171.06 208.487 172.892 208.487 175.263C208.487 177.591 209.112 179.445 210.362 180.824C211.612 182.161 213.185 182.829 215.082 182.829C216.936 182.829 218.488 182.161 219.738 180.824C221.031 179.488 221.678 177.634 221.678 175.263Z" fill="black" fill-opacity="0.95"/>
<path d="M265.305 156.834C269.487 156.834 272.806 158.235 275.263 161.038C277.72 163.796 278.949 167.547 278.949 172.289V193.434H266.275V173.97C266.275 171.901 265.736 170.284 264.658 169.12C263.581 167.913 262.137 167.31 260.326 167.31C258.429 167.31 256.942 167.913 255.864 169.12C254.787 170.284 254.248 171.901 254.248 173.97V193.434H241.574V157.158H254.248V162.331C255.369 160.693 256.877 159.378 258.774 158.386C260.671 157.352 262.848 156.834 265.305 156.834Z" fill="black" fill-opacity="0.95"/>
<path d="M148.826 216.102V226.189H136.669V261.689H123.995V226.189H111.968V216.102H148.826Z" fill="black" fill-opacity="0.95"/>
<path d="M188.174 243.131C188.174 244.122 188.109 245.114 187.98 246.105H163.99C164.119 248.088 164.658 249.576 165.607 250.567C166.598 251.515 167.848 251.99 169.357 251.99C171.469 251.99 172.978 251.041 173.883 249.144H187.398C186.838 251.645 185.738 253.886 184.1 255.869C182.505 257.809 180.479 259.34 178.022 260.46C175.565 261.581 172.849 262.142 169.874 262.142C166.296 262.142 163.106 261.387 160.304 259.878C157.545 258.37 155.368 256.214 153.773 253.412C152.221 250.61 151.445 247.312 151.445 243.519C151.445 239.725 152.221 236.449 153.773 233.69C155.325 230.888 157.481 228.732 160.24 227.224C163.042 225.715 166.253 224.96 169.874 224.96C173.452 224.96 176.621 225.693 179.38 227.159C182.139 228.625 184.294 230.737 185.846 233.496C187.398 236.212 188.174 239.423 188.174 243.131ZM175.241 239.962C175.241 238.41 174.724 237.203 173.689 236.341C172.655 235.436 171.362 234.983 169.81 234.983C168.258 234.983 166.986 235.414 165.995 236.277C165.003 237.096 164.356 238.324 164.055 239.962H175.241Z" fill="black" fill-opacity="0.95"/>
<path d="M191.291 243.519C191.291 239.768 192.067 236.492 193.619 233.69C195.171 230.888 197.327 228.732 200.086 227.224C202.888 225.715 206.078 224.96 209.656 224.96C214.268 224.96 218.148 226.232 221.295 228.776C224.442 231.276 226.468 234.789 227.373 239.316H213.924C213.148 236.945 211.639 235.759 209.397 235.759C207.802 235.759 206.53 236.427 205.582 237.764C204.677 239.057 204.224 240.975 204.224 243.519C204.224 246.062 204.677 248.002 205.582 249.338C206.53 250.675 207.802 251.343 209.397 251.343C211.682 251.343 213.191 250.157 213.924 247.787H227.373C226.468 252.27 224.442 255.783 221.295 258.327C218.148 260.87 214.268 262.142 209.656 262.142C206.078 262.142 202.888 261.387 200.086 259.878C197.327 258.37 195.171 256.214 193.619 253.412C192.067 250.61 191.291 247.312 191.291 243.519Z" fill="black" fill-opacity="0.95"/>
<path d="M256.499 225.09C260.638 225.09 263.914 226.491 266.328 229.293C268.785 232.052 270.014 235.802 270.014 240.544V261.689H257.34V242.226C257.34 240.156 256.801 238.54 255.723 237.376C254.645 236.169 253.201 235.565 251.391 235.565C249.494 235.565 248.007 236.169 246.929 237.376C245.851 238.54 245.312 240.156 245.312 242.226V261.689H232.638V213.838H245.312V230.586C246.433 228.948 247.942 227.633 249.839 226.642C251.779 225.607 253.999 225.09 256.499 225.09Z" fill="black" fill-opacity="0.95"/>
<path d="M219.949 175.472C219.949 177.456 217.938 179.064 215.458 179.064C212.978 179.064 210.968 177.456 210.968 175.472C210.968 173.488 212.978 171.879 215.458 171.879C217.938 171.879 219.949 173.488 219.949 175.472Z" fill="white"/>
<path d="M290.592 108.471C290.953 106.51 293.764 106.51 294.125 108.471L298.561 132.551C298.696 133.284 299.269 133.857 300.002 133.992L324.082 138.428C326.043 138.789 326.043 141.6 324.082 141.961L300.002 146.397C299.269 146.532 298.696 147.105 298.561 147.838L294.125 171.918C293.764 173.879 290.953 173.879 290.592 171.918L286.156 147.838C286.021 147.105 285.448 146.532 284.715 146.397L260.635 141.961C258.674 141.6 258.674 138.789 260.635 138.428L284.715 133.992C285.448 133.857 286.021 133.284 286.156 132.551L290.592 108.471Z" fill="#FFD500"/>
<path fill-rule="evenodd" clip-rule="evenodd" d="M296.795 132.876L292.358 108.796L287.922 132.876C287.652 134.342 286.506 135.488 285.04 135.758L260.96 140.194L285.04 144.63C286.506 144.9 287.652 146.047 287.922 147.513L292.358 171.593L296.795 147.513C297.065 146.047 298.211 144.9 299.677 144.63L323.757 140.194L299.677 135.758C298.211 135.488 297.065 134.342 296.795 132.876ZM294.125 108.471C293.764 106.51 290.953 106.51 290.592 108.471L286.156 132.551C286.021 133.284 285.448 133.857 284.715 133.992L260.635 138.428C258.674 138.789 258.674 141.6 260.635 141.961L284.715 146.397C285.448 146.532 286.021 147.105 286.156 147.838L290.592 171.918C290.953 173.879 293.764 173.879 294.125 171.918L298.561 147.838C298.696 147.105 299.269 146.532 300.002 146.397L324.082 141.961C326.043 141.6 326.043 138.789 324.082 138.428L300.002 133.992C299.269 133.857 298.696 133.284 298.561 132.551L294.125 108.471Z" fill="black"/>
<path d="M110.074 264.74C110.435 262.779 113.246 262.779 113.607 264.74L115.948 277.444C116.082 278.177 116.656 278.75 117.389 278.885L130.093 281.225C132.054 281.587 132.054 284.397 130.093 284.758L117.389 287.099C116.656 287.234 116.082 287.807 115.948 288.54L113.607 301.244C113.246 303.205 110.435 303.205 110.074 301.244L107.734 288.54C107.599 287.807 107.025 287.234 106.293 287.099L93.5884 284.758C91.6274 284.397 91.6274 281.587 93.5884 281.225L106.293 278.885C107.025 278.75 107.599 278.177 107.734 277.444L110.074 264.74Z" fill="#FFD500"/>
<path fill-rule="evenodd" clip-rule="evenodd" d="M114.181 277.769L111.841 265.065L109.5 277.769C109.23 279.235 108.084 280.382 106.618 280.651L93.9139 282.992L106.618 285.332C108.084 285.602 109.23 286.749 109.5 288.214L111.841 300.919L114.181 288.214C114.451 286.749 115.598 285.602 117.063 285.332L129.767 282.992L117.063 280.651C115.598 280.382 114.451 279.235 114.181 277.769ZM113.607 264.74C113.246 262.779 110.435 262.779 110.074 264.74L107.734 277.444C107.599 278.177 107.025 278.75 106.293 278.885L93.5884 281.225C91.6274 281.587 91.6274 284.397 93.5884 284.758L106.293 287.099C107.025 287.234 107.599 287.807 107.734 288.54L110.074 301.244C110.435 303.205 113.246 303.205 113.607 301.244L115.948 288.54C116.082 287.807 116.656 287.234 117.389 287.099L130.093 284.758C132.054 284.397 132.054 281.587 130.093 281.225L117.389 278.885C116.656 278.75 116.082 278.177 115.948 277.444L113.607 264.74Z" fill="black"/>
</g>
<defs>
<filter id="filter0_f_5_1296" x="28" y="-194" width="427" height="434" filterUnits="userSpaceOnUse" color-interpolation-filters="sRGB">
<feFlood flood-opacity="0" result="BackgroundImageFix"/>
<feBlend mode="normal" in="SourceGraphic" in2="BackgroundImageFix" result="shape"/>
<feGaussianBlur stdDeviation="45" result="effect1_foregroundBlur_5_1296"/>
</filter>
<filter id="filter1_f_5_1296" x="-153" y="40" width="427" height="434" filterUnits="userSpaceOnUse" color-interpolation-filters="sRGB">
<feFlood flood-opacity="0" result="BackgroundImageFix"/>
<feBlend mode="normal" in="SourceGraphic" in2="BackgroundImageFix" result="shape"/>
<feGaussianBlur stdDeviation="45" result="effect1_foregroundBlur_5_1296"/>
</filter>
<filter id="filter2_f_5_1296" x="-173" y="-90" width="404" height="401" filterUnits="userSpaceOnUse" color-interpolation-filters="sRGB">
<feFlood flood-opacity="0" result="BackgroundImageFix"/>
<feBlend mode="normal" in="SourceGraphic" in2="BackgroundImageFix" result="shape"/>
<feGaussianBlur stdDeviation="45" result="effect1_foregroundBlur_5_1296"/>
</filter>
<filter id="filter3_f_5_1296" x="51" y="22" width="404" height="401" filterUnits="userSpaceOnUse" color-interpolation-filters="sRGB">
<feFlood flood-opacity="0" result="BackgroundImageFix"/>
<feBlend mode="normal" in="SourceGraphic" in2="BackgroundImageFix" result="shape"/>
<feGaussianBlur stdDeviation="45" result="effect1_foregroundBlur_5_1296"/>
</filter>
<clipPath id="clip0_5_1296">
<rect width="410" height="410" fill="white"/>
</clipPath>
</defs>
</svg>
