<svg width="31" height="31" viewBox="0 0 31 31" fill="none" xmlns="http://www.w3.org/2000/svg">
<path d="M15.5 31C24.0604 31 31 24.0604 31 15.5C31 6.93959 24.0604 0 15.5 0C6.93959 0 0 6.93959 0 15.5C0 24.0604 6.93959 31 15.5 31Z" fill="url(#paint0_linear_2050_48)"/>
<path d="M25.7486 27.1285L11.9078 9.30005H9.29999V21.6949H11.3862V11.9494L24.1109 28.39C24.6851 28.0058 25.2321 27.584 25.7486 27.1285Z" fill="url(#paint1_linear_2050_48)"/>
<path d="M21.8722 9.30005H19.8055V21.7H21.8722V9.30005Z" fill="url(#paint2_linear_2050_48)"/>
<defs>
<linearGradient id="paint0_linear_2050_48" x1="17.5" y1="20" x2="2" y2="10" gradientUnits="userSpaceOnUse">
<stop/>
<stop offset="1" stop-color="#323232"/>
</linearGradient>
<linearGradient id="paint1_linear_2050_48" x1="18.7722" y1="20.0639" x2="24.8861" y2="27.6417" gradientUnits="userSpaceOnUse">
<stop stop-color="white"/>
<stop offset="1" stop-color="white" stop-opacity="0"/>
</linearGradient>
<linearGradient id="paint2_linear_2050_48" x1="20.8389" y1="9.30005" x2="20.8043" y2="18.4063" gradientUnits="userSpaceOnUse">
<stop stop-color="white"/>
<stop offset="1" stop-color="white" stop-opacity="0"/>
</linearGradient>
</defs>
</svg>
