<svg width="31" height="31" viewBox="0 0 31 31" fill="none" xmlns="http://www.w3.org/2000/svg">
<circle cx="15.5" cy="15.5" r="15.5" fill="url(#paint0_linear_2050_42)"/>
<path d="M15.5 26C15.205 26 14.9296 25.9228 14.6739 25.7878L12.058 24.2637C11.6646 24.0514 11.8613 23.9743 11.9793 23.9357C12.5103 23.762 12.6087 23.7235 13.1594 23.4148C13.2184 23.3762 13.2971 23.3955 13.3561 23.4341L15.3623 24.6109C15.441 24.6495 15.5393 24.6495 15.5984 24.6109L23.4462 20.1543C23.5249 20.1158 23.5642 20.0386 23.5642 19.9421V11.0482C23.5642 10.9518 23.5249 10.8746 23.4462 10.836L15.5984 6.39871C15.5197 6.36013 15.4213 6.36013 15.3623 6.39871L7.51449 10.836C7.43582 10.8746 7.39648 10.971 7.39648 11.0482V19.9421C7.39648 20.0193 7.43582 20.1158 7.51449 20.1543L9.65839 21.3698C10.8188 21.9486 11.5466 21.2733 11.5466 20.5981V11.8199C11.5466 11.7042 11.6449 11.5884 11.7826 11.5884H12.7857C12.9037 11.5884 13.0217 11.6849 13.0217 11.8199V20.5981C13.0217 22.1222 12.176 23.0096 10.7008 23.0096C10.2485 23.0096 9.89441 23.0096 8.8913 22.5273L6.82609 21.3698C6.3147 21.0804 6 20.5402 6 19.9614V11.0675C6 10.4888 6.3147 9.94855 6.82609 9.65915L14.6739 5.20257C15.1656 4.93248 15.8344 4.93248 16.3261 5.20257L24.1739 9.65915C24.6853 9.94855 25 10.4888 25 11.0675V19.9614C25 20.5402 24.6853 21.0804 24.1739 21.3698L16.3261 25.8264C16.0901 25.9228 15.795 26 15.5 26Z" fill="white"/>
<path d="M17.9389 19.8842C14.4969 19.8842 13.7888 18.3408 13.7888 17.0289C13.7888 16.9132 13.8871 16.7974 14.0248 16.7974H15.0476C15.1656 16.7974 15.2639 16.8746 15.2639 16.9904C15.4213 18.0129 15.8736 18.5145 17.9585 18.5145C19.6107 18.5145 20.3188 18.1479 20.3188 17.2797C20.3188 16.7781 20.1221 16.4116 17.5455 16.1608C15.4016 15.9485 14.0641 15.4855 14.0641 13.8071C14.0641 12.2444 15.4016 11.3183 17.6438 11.3183C20.1614 11.3183 21.4006 12.1672 21.5579 14.0193C21.5579 14.0772 21.5383 14.1351 21.4989 14.1929C21.4596 14.2315 21.4006 14.2701 21.3416 14.2701H20.2991C20.2008 14.2701 20.1024 14.1929 20.0828 14.0965C19.8468 13.0354 19.237 12.6881 17.6242 12.6881C15.8146 12.6881 15.5983 13.3054 15.5983 13.7685C15.5983 14.328 15.854 14.5016 18.2929 14.8103C20.7122 15.119 21.853 15.5627 21.853 17.2219C21.853 18.9196 20.4171 19.8842 17.9389 19.8842Z" fill="white"/>
<defs>
<linearGradient id="paint0_linear_2050_42" x1="17.5" y1="20" x2="2" y2="10" gradientUnits="userSpaceOnUse">
<stop/>
<stop offset="1" stop-color="#323232"/>
</linearGradient>
</defs>
</svg>
