<svg width="235" height="235" viewBox="0 0 235 235" fill="none" xmlns="http://www.w3.org/2000/svg">
<path d="M114.072 5.74414C114.746 2.08571 119.989 2.08573 120.663 5.74414L136.348 90.8848C137.05 94.6993 140.035 97.6839 143.85 98.3867L228.991 114.072C232.649 114.746 232.649 119.989 228.991 120.663L143.85 136.348C140.035 137.05 137.05 140.035 136.348 143.85L120.663 228.991C119.989 232.649 114.746 232.649 114.072 228.991L98.3867 143.85C97.6839 140.035 94.6993 137.05 90.8848 136.348L5.74414 120.663C2.08571 119.989 2.08573 114.746 5.74414 114.072L90.8848 98.3867C94.6993 97.684 97.684 94.6993 98.3867 90.8848L114.072 5.74414Z" fill="#FFD500" stroke="black" stroke-width="6"/>
</svg>
